<?xml version="1.0" encoding="UTF-8"?>
<svg width="192px" height="192px" viewBox="0 0 192 192" version="1.1" xmlns="http://www.w3.org/2000/svg" xmlns:xlink="http://www.w3.org/1999/xlink">
    <!-- Generator: sketchtool 47.1 (45422) - http://www.bohemiancoding.com/sketch -->
    <title>BFD34362-A6E0-4496-9C69-AE6CF50DF027</title>
    <desc>Created with sketchtool.</desc>
    <defs></defs>
    <g id="Symbols" stroke="#c23934" stroke-width="5" fill="none" fill-rule="evenodd">
        <g id="Modal-/-Steps-Sucess-Copy" transform="translate(-265.000000, -216.000000)">
            <g id="Group" transform="translate(269.000000, 220.000000)">
                <g id="Icons-/-Recycle" transform="translate(42.000000, 35.000000)" fill="#494362">
                    <g id="Icons/-Datagrid-/Trash">
                        <path d="M96.2505602,15.4406447 C97.7698106,15.4406447 99,16.5916174 99,18.0130373 C99,19.4344571 97.7698106,20.5854298 96.2505602,20.5854298 L90.7516806,20.5854298 L85.2460786,102.91457 C84.2175596,108.493329 80.3253208,113.21043 74.2483194,113.21043 L24.7449582,113.21043 C18.6746792,113.21043 14.6345488,108.556223 13.747199,102.91457 L8.24831941,20.5854298 L2.7494398,20.5854298 C1.23018945,20.5854298 0,19.4344571 0,18.0130373 C0,16.5916174 1.23018945,15.4406447 2.7494398,15.4406447 L30.2505602,15.4406447 L30.2505602,5.14478509 C30.2505602,2.30194541 32.7109391,0 35.7494398,0 L63.2505602,0 C66.2890609,0 68.7494398,2.30194541 68.7494398,5.14478509 L68.7494398,15.4406447 L96.2505602,15.4406447 Z M79.747199,102.91457 L85.2460786,20.5854298 L13.747199,20.5854298 L19.2460786,102.91457 C19.6695865,105.663068 21.7131799,108.065645 24.7449582,108.065645 L74.2483194,108.065645 C77.2868201,108.065645 79.37747,105.63162 79.747199,102.91457 Z M49.4966388,97.7760746 C47.9773885,97.7760746 46.7539214,96.6188124 46.7539214,95.203682 L46.7539214,33.4473925 C46.7539214,32.0259727 47.9773885,30.875 49.4966388,30.875 C51.0226115,30.875 52.252801,32.0259727 52.252801,33.4473925 L52.252801,95.203682 C52.252801,96.6188124 51.0226115,97.7760746 49.4966388,97.7760746 Z M65.9058871,97.7697851 C64.3866368,97.7194693 63.2035038,96.5307598 63.2572825,95.10934 L67.2503565,33.4285241 C67.2974129,32.0008148 68.5746588,30.8938684 70.0939091,30.9441842 C71.6131595,31.0007894 72.8030149,32.1894989 72.7425138,33.6109187 L68.7561622,95.2917346 C68.695661,96.7131544 67.4251375,97.8263903 65.9058871,97.7697851 Z M35.7494398,15.4406447 L63.2505602,15.4406447 L63.2505602,5.14478509 L35.7494398,5.14478509 L35.7494398,15.4406447 Z M33.1008352,97.7760746 C31.5815848,97.8263903 30.3110613,96.7131544 30.2505602,95.2917346 L26.2037075,33.6172082 C26.1432064,32.1894989 27.3330617,31.0007894 28.8455897,30.9441842 C30.3648401,30.8938684 31.642086,32.0071043 31.7025871,33.4285241 L35.7494398,95.1030505 C35.8032186,96.5307598 34.6200856,97.7194693 33.1008352,97.7760746 Z" id="Combined-Shape"></path>
                    </g>
                </g>
                <circle id="Oval-4" stroke="#c23934" stroke-width="7" cx="92" cy="92" r="92"></circle>
            </g>
        </g>
    </g>
</svg>