<?xml version="1.0" encoding="UTF-8"?>
<svg width="159px" height="159px" viewBox="0 0 159 159" version="1.1" xmlns="http://www.w3.org/2000/svg" xmlns:xlink="http://www.w3.org/1999/xlink">
    <defs>
        <polygon points="0.0014392555 158.318105 158.318105 158.318105 158.318105 0.0014392555 0.0014392555 0.0014392555"></polygon>
    </defs>
    <g stroke="none" stroke-width="1" fill="none" fill-rule="evenodd">
        <g id="Modal-/-Steps-Sucess" transform="translate(-281.000000, -230.000000)">
            <g transform="translate(241.000000, 89.000000)">
                <g transform="translate(40.000000, 141.000000)">
                    <mask fill="white">
                        <use xlink:href="#path-1"></use>
                    </mask>
                    <g></g>
                    <path d="M151.958035,48.8209858 C150.540368,47.4285061 148.262746,47.4464968 146.870267,48.8641634 C145.880778,49.8716423 145.636105,51.3072996 146.067882,52.5630501 L145.992321,52.588237 C149.266627,60.8171803 151.123267,69.7621533 151.123267,79.1604917 C151.123267,118.905532 118.901934,151.123267 79.1604917,151.123267 C39.4190492,151.123267 7.19771675,118.905532 7.19771675,79.1604917 C7.19771675,39.4154511 39.4190492,7.19771675 79.1604917,7.19771675 C99.50077,7.19771675 117.840483,15.6605391 130.916119,29.2363166 L130.962895,29.1895408 C132.387758,30.46688 134.564632,30.4380949 135.92113,29.0600078 C137.31361,27.6423411 137.295619,25.3647193 135.877953,23.9722396 C135.744822,23.8391084 135.568513,23.7815382 135.420989,23.6735941 C121.089602,9.097534 101.22068,0.0014392555 79.1604917,0.0014392555 C35.4395078,0.0014392555 0.0014392555,35.4395078 0.0014392555,79.1604917 C0.0014392555,122.877877 35.4395078,158.319544 79.1604917,158.319544 C122.877877,158.319544 158.319544,122.877877 158.319544,79.1604917 C158.319544,68.9849553 156.329773,59.2879714 152.828784,50.3501947 C152.659672,49.7960814 152.400606,49.2599587 151.958035,48.8209858 L151.958035,48.8209858 Z M79.0993233,99.1985263 L45.7229883,65.8221913 C45.0717252,65.1709282 44.1721905,64.7679367 43.1791042,64.7679367 C41.1893335,64.7679367 39.5809655,66.3799028 39.5809655,68.3660754 C39.5809655,69.3591617 39.9803589,70.2586964 40.6352201,70.9135577 L76.6166076,106.891347 C77.2678707,107.54261 78.1638072,107.945602 79.1604917,107.945602 C80.1859612,107.945602 81.0962903,107.510227 81.7511516,106.819384 L81.761946,106.833777 L141.843667,43.8879375 C141.847265,43.8951338 141.854461,43.9023301 141.858059,43.9095264 L146.996201,38.5195145 C146.992603,38.5159164 146.989005,38.5087201 146.985407,38.5015238 L157.32286,27.6711262 L157.312065,27.6603318 C157.927347,27.016265 158.319544,26.1491135 158.319544,25.1884105 C158.319544,23.2022379 156.707578,21.5902717 154.721405,21.5902717 C153.692338,21.5902717 152.782009,22.0292447 152.127147,22.712891 L152.119951,22.7020966 L142.872734,32.3918842 C142.865538,32.3810898 142.858342,32.3702954 142.851146,32.3630991 L137.831742,37.623578 C137.838938,37.6343724 137.842536,37.6451668 137.849733,37.6523631 L79.0993233,99.1985263 Z" fill="#61D574" mask="url(#mask-2)"></path>
                </g>
            </g>
        </g>
    </g>
</svg>