<?xml version="1.0" encoding="UTF-8"?>
<svg width="32px" height="32px" viewBox="0 0 32 32" version="1.1" xmlns="http://www.w3.org/2000/svg" xmlns:xlink="http://www.w3.org/1999/xlink">
    <!-- Generator: sketchtool 47 (45396) - http://www.bohemiancoding.com/sketch -->
    <title>AAF52341-143B-4D1C-86EC-7B1DEF4BB4B6</title>
    <desc>Created with sketchtool.</desc>
    <defs>
        <radialGradient cx="82.917577%" cy="100%" fx="82.917577%" fy="100%" r="50%" gradientTransform="translate(0.829176,1.000000),scale(1.000000,0.688354),rotate(-90.000000),translate(-0.829176,-1.000000)" id="radialGradient-1">
            <stop stop-color="#000000" offset="0%"></stop>
            <stop stop-color="#FFFFFF" stop-opacity="0" offset="100%"></stop>
        </radialGradient>
        <radialGradient cx="0%" cy="16.2899781%" fx="0%" fy="16.2899781%" r="50%" gradientTransform="translate(0.000000,0.162900),scale(0.845255,1.000000),rotate(-90.000000),scale(1.000000,0.977787),translate(-0.000000,-0.162900)" id="radialGradient-2">
            <stop stop-color="#000000" offset="0%"></stop>
            <stop stop-color="#FFFFFF" stop-opacity="0" offset="100%"></stop>
        </radialGradient>
        <radialGradient cx="25.1701832%" cy="26.764925%" fx="25.1701832%" fy="26.764925%" r="50%" gradientTransform="translate(0.251702,0.267649),scale(1.000000,0.681671),rotate(-90.000000),translate(-0.251702,-0.267649)" id="radialGradient-3">
            <stop stop-color="#000000" offset="0%"></stop>
            <stop stop-color="#FFFFFF" stop-opacity="0" offset="100%"></stop>
        </radialGradient>
        <radialGradient cx="88.9917552%" cy="85.2776878%" fx="88.9917552%" fy="85.2776878%" r="50%" gradientTransform="translate(0.889918,0.852777),scale(0.841606,1.000000),rotate(-90.000000),translate(-0.889918,-0.852777)" id="radialGradient-4">
            <stop stop-color="#000000" offset="0%"></stop>
            <stop stop-color="#FFFFFF" stop-opacity="0" offset="100%"></stop>
        </radialGradient>
    </defs>
    <g id="4-UNO-symbols" stroke="none" stroke-width="1" fill="none" fill-rule="evenodd">
        <g id="Menu-/-Bar-Left-Full-Copy-5" transform="translate(-10.000000, -40.000000)">
            <g id="uno.icon" transform="translate(10.000000, 40.000000)">
                <g id="Page-1">
                    <g id="Group-3" transform="translate(0.000000, 0.000139)" fill="#FFFFFF">
                        <path d="M16.000545,2.87682771 C8.70147074,2.87682771 2.76246638,8.76358095 2.76246638,15.9994597 C2.76246638,23.2353385 8.70147074,29.1229229 16.000545,29.1229229 C23.2996192,29.1229229 29.2376454,23.2353385 29.2376454,15.9994597 C29.2376454,8.76358095 23.2996192,2.87682771 16.000545,2.87682771 M16.000545,31.8614857 C7.17748821,31.8614857 -1.39737991e-05,24.7458494 -1.39737991e-05,15.9994597 C-1.39737991e-05,7.25320866 7.17748821,0.138264935 16.000545,0.138264935 C24.8223441,0.138264935 31.999986,7.25320866 31.999986,15.9994597 C31.999986,24.7458494 24.8223441,31.8614857 16.000545,31.8614857" id="Fill-1"></path>
                    </g>
                    <path d="M16.000545,13.343626 C18.5742393,13.343626 20.9131738,14.3564052 22.6364227,15.999626 C23.3043703,15.3636433 23.878414,14.6323532 24.3395493,13.8280589 C22.1407721,11.8278511 19.2115843,10.6050632 16.000545,10.6050632 C9.193069,10.6050632 3.65441397,16.0947948 3.65441397,22.8431931 L3.65441397,25.560561 L6.41703406,25.560561 L6.41703406,22.8431931 C6.41703406,17.6051671 10.7159336,13.343626 16.000545,13.343626" id="Fill-4" fill="#FFFFFF"></path>
                    <path d="M24.3395214,18.1712762 C25.1293205,19.5519861 25.58291,21.1456139 25.58291,22.8432762 L25.58291,25.5605056 L28.3455301,25.5605056 L28.3455301,22.8432762 C28.3455301,20.3098736 27.5650934,17.9543411 26.2303162,15.9997091 C25.6870148,16.7952762 25.050648,17.5242113 24.3395214,18.1712762" id="Fill-6" fill="#FFFFFF"></path>
                    <path d="M7.66158253,13.8280035 C6.87108472,12.4472935 6.41707598,10.8536658 6.41707598,9.15600346 L6.41707598,6.43877403 L3.6544559,6.43877403 L3.6544559,9.15600346 C3.6544559,11.6894061 4.43503231,14.0449385 5.77008908,15.9997091 C6.31311092,15.2040035 6.94919825,14.4758996 7.66158253,13.8280035" id="Fill-8" fill="#FFFFFF"></path>
                    <path d="M25.5829799,6.43873247 L25.5829799,9.15610043 C25.5829799,14.3949576 21.2840803,18.6564987 16.0005869,18.6564987 C13.4260541,18.6564987 11.0871197,17.6428883 9.36345153,15.9996675 C8.6964821,16.6364814 8.12173974,17.3669403 7.66158253,18.1712346 C9.85910218,20.171581 12.7881502,21.3949229 16.0005869,21.3949229 C22.8079231,21.3949229 28.3456,15.9044987 28.3456,9.15610043 L28.3456,6.43873247 L25.5829799,6.43873247 Z" id="Fill-10" fill="#FFFFFF"></path>
                    <path d="M7.66155459,13.8280173 C7.10721397,12.8609524 6.72391266,11.7869437 6.54099563,10.6475498 C5.56827948,10.8504935 4.69212227,11.3073593 3.97736245,11.9394632 C4.32391266,13.4120173 4.93945852,14.7841385 5.77006114,15.9997229 C6.31308297,15.2038788 6.94917031,14.4759134 7.66155459,13.8280173 Z" id="Fill-12" fill="url(#radialGradient-1)" opacity="0.203408062"></path>
                    <path d="M7.66155459,18.17129 C8.68611354,19.1037229 9.87123144,19.8647965 11.1681397,20.4144762 C11.9231441,19.8200519 12.5188472,19.0377835 12.8845415,18.1374892 C11.5549345,17.6829784 10.3572402,16.9462857 9.36342358,15.9997229 C8.69645415,16.6365368 8.12171179,17.3669957 7.66155459,18.17129 Z" id="Fill-14" fill="url(#radialGradient-2)" opacity="0.203408062"></path>
                    <path d="M24.3395633,18.17129 C24.9032664,19.1573333 25.2918777,20.2541991 25.4703231,21.417697 C26.4442969,21.2078268 27.3205939,20.7448658 28.0328384,20.1038961 C27.6881048,18.6147186 27.069345,17.2277749 26.2303581,15.9997229" id="Fill-16" fill="url(#radialGradient-3)" opacity="0.101958786"></path>
                    <path d="M22.6364367,15.9997229 C23.3043843,15.3636017 23.8784279,14.6324502 24.3395633,13.8280173 C23.3273013,12.9073593 22.1592314,12.1540433 20.8806288,11.606026 C20.1119301,12.1901991 19.4980611,12.96471 19.118952,13.8626494 C20.4467424,14.3178528 21.6434585,15.0538528 22.6364367,15.9997229" id="Fill-18" fill="url(#radialGradient-4)" opacity="0.101958786"></path>
                </g>
            </g>
        </g>
    </g>
</svg>