<svg xmlns="http://www.w3.org/2000/svg" width="192" height="192" viewBox="0 0 192 192">
    <g fill="#FFAE1C" fill-rule="evenodd">
        <path fill-rule="nonzero" d="M96 191.5C43.257 191.5.5 148.743.5 96S43.257.5 96 .5s95.5 42.757 95.5 95.5-42.757 95.5-95.5 95.5zm0-7c48.877 0 88.5-39.623 88.5-88.5S144.877 7.5 96 7.5 7.5 47.123 7.5 96s39.623 88.5 88.5 88.5z"/>
        <path d="M96.125 126c-1.692 0-3.13-.473-4.315-1.419-1.184-.946-1.861-2.239-2.03-3.878l-6.717-76.244c-.338-2.9.677-5.202 3.046-6.905C88.478 35.851 91.61 35 95.5 35c3.892 0 7.022.851 9.39 2.554 2.37 1.703 3.385 4.005 3.047 6.905l-5.467 76.244c-.17 1.765-.846 3.09-2.03 3.973-1.185.883-2.623 1.324-4.315 1.324zm-.452 31c-2.764 0-5.067-.869-6.91-2.606-1.842-1.738-2.763-4.008-2.763-6.81 0-2.802.921-5.1 2.764-6.894 1.842-1.793 4.145-2.69 6.909-2.69 2.648 0 4.865.897 6.65 2.69 1.785 1.794 2.677 4.092 2.677 6.894 0 2.802-.892 5.072-2.677 6.81-1.785 1.737-4.002 2.606-6.65 2.606z"/>
    </g>
</svg>
