<?xml version="1.0" encoding="utf-8"?>
<svg xmlns="http://www.w3.org/2000/svg">
<symbol id="alert-copy" viewBox="0 0 18 18">
  <path fill="#FFAE1C" fill-rule="evenodd" d="M441,178.685979 C436.761652,178.685979 433.313591,175.238007 433.313591,170.999768 C433.313591,166.761993 436.761652,163.314021 441,163.314021 C445.238348,163.314021 448.686409,166.761993 448.686409,170.999768 C448.686409,175.238007 445.238348,178.685979 441,178.685979 M441,162 C445.962816,162 450,166.037543 450,170.999768 C450,175.962457 445.962816,180 441,180 C436.037184,180 432,175.962457 432,170.999768 C432,166.037543 436.037184,162 441,162 Z M441.078957,174.916974 C440.822631,174.916974 440.609028,175.002415 440.438144,175.173299 C440.267259,175.344184 440.181818,175.563126 440.181818,175.830134 C440.181818,176.097141 440.267259,176.313413 440.438144,176.478957 C440.609028,176.644502 440.822631,176.727273 441.078957,176.727273 C441.324604,176.727273 441.530196,176.644502 441.695741,176.478957 C441.861285,176.313413 441.944056,176.097141 441.944056,175.830134 C441.944056,175.563126 441.861285,175.344184 441.695741,175.173299 C441.530196,175.002415 441.324604,174.916974 441.078957,174.916974 Z M441,165.332604 C440.64219,165.332604 440.35439,165.411629 440.136592,165.56968 C439.918794,165.727731 439.825454,165.94139 439.856568,166.210663 L439.856568,166.210663 L440.474067,173.287817 C440.489624,173.440014 440.551851,173.560014 440.66075,173.647821 C440.769649,173.735627 440.901881,173.77953 441.057451,173.77953 C441.213021,173.77953 441.345253,173.738554 441.454152,173.656601 C441.563051,173.574649 441.625278,173.451722 441.640835,173.287817 L441.640835,173.287817 L442.143432,166.210663 C442.174546,165.94139 442.081206,165.727731 441.863408,165.56968 C441.64561,165.411629 441.35781,165.332604 441,165.332604 Z" transform="translate(-432 -162)"/>

</symbol>
<symbol id="alert-over" viewBox="0 0 18 18">
  <path fill="#FFAE1C" fill-rule="evenodd" d="M225,162 C229.962816,162 234,166.037543 234,170.999768 C234,175.962457 229.962816,180 225,180 C220.037184,180 216,175.962457 216,170.999768 C216,166.037543 220.037184,162 225,162 Z M225.078957,174.916974 C224.822631,174.916974 224.609028,175.002415 224.438144,175.173299 C224.267259,175.344184 224.181818,175.563126 224.181818,175.830134 C224.181818,176.097141 224.267259,176.313413 224.438144,176.478957 C224.609028,176.644502 224.822631,176.727273 225.078957,176.727273 C225.324604,176.727273 225.530196,176.644502 225.695741,176.478957 C225.861285,176.313413 225.944056,176.097141 225.944056,175.830134 C225.944056,175.563126 225.861285,175.344184 225.695741,175.173299 C225.530196,175.002415 225.324604,174.916974 225.078957,174.916974 Z M225,165.332604 C224.64219,165.332604 224.35439,165.411629 224.136592,165.56968 C223.918794,165.727731 223.825454,165.94139 223.856568,166.210663 L223.856568,166.210663 L224.474067,173.287817 C224.489624,173.440014 224.551851,173.560014 224.66075,173.647821 C224.769649,173.735627 224.901881,173.77953 225.057451,173.77953 C225.213021,173.77953 225.345253,173.738554 225.454152,173.656601 C225.563051,173.574649 225.625278,173.451722 225.640835,173.287817 L225.640835,173.287817 L226.143432,166.210663 C226.174546,165.94139 226.081206,165.727731 225.863408,165.56968 C225.64561,165.411629 225.35781,165.332604 225,165.332604 Z" transform="translate(-216 -162)"/>

</symbol>
<symbol id="alert" viewBox="0 0 18 18">
  <path fill="#FFAE1C" fill-rule="evenodd" d="M189,178.685979 C184.761652,178.685979 181.313591,175.238007 181.313591,170.999768 C181.313591,166.761993 184.761652,163.314021 189,163.314021 C193.238348,163.314021 196.686409,166.761993 196.686409,170.999768 C196.686409,175.238007 193.238348,178.685979 189,178.685979 M189,162 C193.962816,162 198,166.037543 198,170.999768 C198,175.962457 193.962816,180 189,180 C184.037184,180 180,175.962457 180,170.999768 C180,166.037543 184.037184,162 189,162 Z M189.078957,174.916974 C188.822631,174.916974 188.609028,175.002415 188.438144,175.173299 C188.267259,175.344184 188.181818,175.563126 188.181818,175.830134 C188.181818,176.097141 188.267259,176.313413 188.438144,176.478957 C188.609028,176.644502 188.822631,176.727273 189.078957,176.727273 C189.324604,176.727273 189.530196,176.644502 189.695741,176.478957 C189.861285,176.313413 189.944056,176.097141 189.944056,175.830134 C189.944056,175.563126 189.861285,175.344184 189.695741,175.173299 C189.530196,175.002415 189.324604,174.916974 189.078957,174.916974 Z M189,165.332604 C188.64219,165.332604 188.35439,165.411629 188.136592,165.56968 C187.918794,165.727731 187.825454,165.94139 187.856568,166.210663 L187.856568,166.210663 L188.474067,173.287817 C188.489624,173.440014 188.551851,173.560014 188.66075,173.647821 C188.769649,173.735627 188.901881,173.77953 189.057451,173.77953 C189.213021,173.77953 189.345253,173.738554 189.454152,173.656601 C189.563051,173.574649 189.625278,173.451722 189.640835,173.287817 L189.640835,173.287817 L190.143432,166.210663 C190.174546,165.94139 190.081206,165.727731 189.863408,165.56968 C189.64561,165.411629 189.35781,165.332604 189,165.332604 Z" transform="translate(-180 -162)"/>

</symbol>
<symbol id="approval" viewBox="0 0 18 18">
  <path fill="#2ECC71" d="M398.629393,164.645468 C401.60782,161.670624 406.184049,161.143829 409.751957,163.374962 C410.046697,163.56089 410.139773,163.948239 409.953621,164.242625 C409.76747,164.53701 409.379654,164.629974 409.084913,164.444046 C406.01341,162.538287 402.088712,162.987613 399.513613,165.544119 C396.504161,168.549951 396.504161,173.461541 399.513613,176.467373 C402.523066,179.473205 407.440573,179.473205 410.450026,176.467373 C413.025124,173.895373 413.474991,169.959902 411.535911,166.892095 C411.349759,166.597709 411.442835,166.21036 411.737575,166.024432 C412.032315,165.838504 412.420131,165.931468 412.606283,166.225854 C414.855616,169.789469 414.343699,174.375686 411.349759,177.366024 C409.596831,179.116843 407.285447,180 404.989576,180 C402.693705,180 400.382321,179.116843 398.629393,177.366024 C395.123536,173.864385 395.123536,168.147107 398.629393,164.645468 Z M410.690105,164.422118 C410.919612,164.162424 411.317425,164.131872 411.577534,164.345737 C411.837643,164.574879 411.868244,164.972058 411.654037,165.231752 L411.654037,165.231752 L404.416896,173.893307 C404.294492,174.030792 404.126187,174.107173 403.957881,174.122449 L403.957881,174.122449 L403.92728,174.122449 C403.758975,174.122449 403.605969,174.061345 403.483565,173.939136 L403.483565,173.939136 L400.591769,171.05195 C400.346961,170.807533 400.346961,170.410354 400.591769,170.165936 C400.836577,169.921518 401.234391,169.921518 401.479199,170.165936 L401.479199,170.165936 L403.881379,172.564286 Z" transform="translate(-396 -162)"/>

</symbol>
<symbol id="atex" viewBox="0 0 18 17">
  <g fill="none" fill-rule="evenodd">
    <path fill="#241F21" d="M17.6497255,12.7199897 C18.4048802,14.0995738 17.8986803,15.8301215 16.5190963,16.5852762 C16.0998873,16.8147423 15.6296702,16.9350159 15.1517676,16.9350159 L2.8476975,16.9350159 C1.2749576,16.9350159 0,15.6600583 0,14.0873184 C0,13.6094159 0.12027363,13.1391987 0.34973965,12.7199897 L6.50177472,1.48090371 C7.25692948,0.101319687 8.98747719,-0.404880248 10.3670612,0.350274511 C10.8441809,0.611439596 11.2365253,1.00378406 11.4976904,1.48090371 L17.6497255,12.7199897 Z"/>
    <path fill="#FFE224" d="M7.33442734,1.93667993 C7.83786384,1.01695724 8.99156232,0.679490621 9.911285,1.18292713 C10.2293648,1.35703718 10.4909277,1.61860016 10.6650378,1.93667993 L10.6650378,1.93667993 L16.8170729,13.175766 C17.3205094,14.0954886 16.9830428,15.2491871 16.0633201,15.7526236 C15.7838474,15.905601 15.4703693,15.9857834 15.1517676,15.9857834 L15.1517676,15.9857834 L2.8476975,15.9857834 C1.79920423,15.9857834 0.949232499,15.1358117 0.949232499,14.0873184 C0.949232499,13.7687167 1.02941492,13.4552386 1.18239227,13.175766 L1.18239227,13.175766 Z M13.2228342,8.68848168 C13.0898886,8.68848168 12.975557,8.7469769 12.8798361,8.86396911 L12.8798361,8.86396911 L11.3243793,10.7863542 L9.76892246,8.86396911 C9.66788374,8.7469769 9.55089328,8.68848168 9.41794759,8.68848168 C9.29031973,8.68848168 9.17864702,8.73501197 9.08292613,8.82807395 C8.98720523,8.92113594 8.9393455,9.0314792 8.9393455,9.15910707 C8.9393455,9.27609928 8.97922861,9.37713649 9.05899602,9.46222173 L9.05899602,9.46222173 L10.7261267,11.4962806 L8.98720571,13.6180832 C8.90743829,13.7138041 8.86755518,13.8148414 8.86755518,13.9211979 C8.86755518,14.0488258 8.91674435,14.159169 9.01512416,14.252231 C9.11350397,14.345293 9.22650612,14.3918233 9.35413398,14.3918233 C9.48707967,14.3918233 9.60141125,14.3359869 9.69713215,14.2243126 L9.69713215,14.2243126 L11.3243793,12.2141838 L12.9436497,14.2243126 C13.0446884,14.3413048 13.1616789,14.3998 13.2946246,14.3998 C13.4222524,14.3998 13.5352546,14.3519403 13.6336344,14.2562194 C13.7320142,14.1604985 13.7812034,14.0488258 13.7812034,13.9211979 C13.7812034,13.8201592 13.7386614,13.719122 13.6535761,13.6180832 L13.6535761,13.6180832 L11.9226319,11.4962806 L13.5897625,9.46222173 C13.6695299,9.37713649 13.709413,9.27609928 13.709413,9.15910707 C13.709413,9.0314792 13.6602239,8.92113594 13.5618441,8.82807395 C13.4634642,8.73501197 13.3504621,8.68848168 13.2228342,8.68848168 Z M8.01404812,8.72836518 L5.13445885,8.72836518 C4.98024185,8.72836518 4.85926308,8.77090717 4.77151893,8.85599241 C4.68377477,8.94107765 4.63990335,9.06072698 4.63990335,9.21494398 L4.63990335,9.21494398 L4.63990335,13.865361 C4.63990335,14.019578 4.68377477,14.1392273 4.77151893,14.2243126 C4.85926308,14.3093978 4.98024185,14.3519398 5.13445885,14.3519398 L5.13445885,14.3519398 L8.01404812,14.3519398 C8.16826512,14.3519398 8.28791444,14.3173744 8.37299969,14.2482427 C8.45808493,14.1791109 8.50062691,14.0807326 8.50062691,13.9531047 C8.50062691,13.820159 8.45808493,13.7177924 8.37299969,13.6460017 C8.28791444,13.574211 8.16826512,13.5383162 8.01404812,13.5383162 L8.01404812,13.5383162 L5.64496775,13.5383162 L5.64496775,11.8951157 L7.85451408,11.8951157 C8.00873109,11.8951157 8.12838041,11.8605503 8.21346566,11.7914186 C8.2985509,11.7222868 8.34109288,11.6239085 8.34109288,11.4962806 C8.34109288,11.3633349 8.2985509,11.2622977 8.21346566,11.193166 C8.12838041,11.1240342 8.00873109,11.0894688 7.85451408,11.0894688 L7.85451408,11.0894688 L5.64496775,11.0894688 L5.64496775,9.54198874 L8.01404812,9.54198874 C8.16826512,9.54198874 8.28791444,9.50609395 8.37299969,9.43430327 C8.45808493,9.3625126 8.50062691,9.26014595 8.50062691,9.12720026 C8.50062691,8.9995724 8.45808493,8.90119406 8.37299969,8.8320623 C8.28791444,8.76293054 8.16826512,8.72836518 8.01404812,8.72836518 L8.01404812,8.72836518 Z"/>
  </g>

</symbol>
<symbol id="business_unit" viewBox="0 0 16 18">
  <g fill="none" fill-rule="evenodd">
    <polygon fill="#921A3D" points="7.585 14.457 7.584 14.456 7.584 14.457 4.124 12.466 2.606 11.593 2.606 11.59 2.604 11.593 .004 13.088 .004 13.091 7.585 17.454 15.167 13.091 12.564 11.593"/>
    <polygon fill="#F08521" points="12.563 5.861 12.563 11.593 15.167 13.091 15.167 4.364 7.585 0 7.585 2.997"/>
    <polygon fill="#E73E30" points=".004 13.088 2.604 11.593 2.606 11.59 2.606 5.861 7.581 2.999 7.581 2.997 7.581 .002 7.581 .001 0 4.364 0 13.091"/>
    <polygon fill="#F9C125" points="7.856 8.588 10.591 7.013 7.856 5.44 5.12 7.013"/>
    <polygon fill="#E73E30" points="7.856 9.43 7.856 12.579 10.592 11.006 10.592 7.855"/>
    <polygon fill="#F08521" points="5.12 7.855 5.12 11.005 5.954 11.485 7.856 12.579 7.856 12.578 7.856 9.43"/>
  </g>

</symbol>
<symbol id="chemicals" viewBox="0 0 18 17">
  <g fill="none" fill-rule="evenodd">
    <path fill="#241F21" d="M17.6497255,12.7199897 C18.4048802,14.0995738 17.8986803,15.8301215 16.5190963,16.5852762 C16.0998873,16.8147423 15.6296702,16.9350159 15.1517676,16.9350159 L2.8476975,16.9350159 C1.2749576,16.9350159 0,15.6600583 0,14.0873184 C0,13.6094159 0.12027363,13.1391987 0.34973965,12.7199897 L6.50177472,1.48090371 C7.25692948,0.101319687 8.98747719,-0.404880248 10.3670612,0.350274511 C10.8441809,0.611439596 11.2365253,1.00378406 11.4976904,1.48090371 L17.6497255,12.7199897 Z"/>
    <path fill="#FFE224" fill-rule="nonzero" d="M9.911285,1.18292713 C8.99156232,0.679490621 7.83786384,1.01695724 7.33442734,1.93667993 L1.18239227,13.175766 C1.02941492,13.4552386 0.949232499,13.7687167 0.949232499,14.0873184 C0.949232499,15.1358117 1.79920423,15.9857834 2.8476975,15.9857834 L15.1517676,15.9857834 C15.4703693,15.9857834 15.7838474,15.905601 16.0633201,15.7526236 C16.9830428,15.2491871 17.3205094,14.0954886 16.8170729,13.175766 L10.6650378,1.93667993 C10.4909277,1.61860016 10.2293648,1.35703718 9.911285,1.18292713 Z"/>
    <path fill="#241F21" d="M12.25725,12.8685515 C12.4057507,13.0377724 12.48,13.2239126 12.48,13.4269777 C12.48,13.6571181 12.3905634,13.858488 12.2116875,14.0310933 C12.0328116,14.2036986 11.8320011,14.29 11.60925,14.29 C11.3729988,14.29 11.1671259,14.188469 10.991625,13.9854039 L9.250125,11.893844 L7.47825,13.9854039 C7.30274912,14.188469 7.10025115,14.29 6.87075,14.29 C6.64799889,14.29 6.44718839,14.2020065 6.2683125,14.0260167 C6.08943661,13.850027 6,13.6469649 6,13.4168245 C6,13.2205283 6.07087429,13.0377724 6.212625,12.8685515 L8.156625,10.6145404 L6.26325,8.41129526 C6.11474926,8.23530553 6.0405,8.05254969 6.0405,7.86302228 C6.0405,7.63288186 6.12993661,7.43151201 6.3088125,7.25890669 C6.48768839,7.08630137 6.69187385,7 6.921375,7 C7.15762618,7 7.36349912,7.10153102 7.539,7.3045961 L9.250125,9.33523677 L10.951125,7.3045961 C11.1131258,7.10153102 11.3122488,7 11.5485,7 C11.7780011,7 11.9821866,7.08630137 12.1610625,7.25890669 C12.3399384,7.43151201 12.429375,7.63288186 12.429375,7.86302228 C12.429375,8.05931853 12.3585007,8.24207436 12.21675,8.41129526 L10.323375,10.6145404 L12.25725,12.8685515 Z"/>
  </g>

</symbol>
<symbol id="component" viewBox="0 0 18 11">
  <g fill="none" fill-rule="evenodd">
    <polygon fill="#F9C125" points="2.936 0 0 5.084 5.872 5.084"/>
    <polygon fill="#F08521" points="0 5.084 2.936 10.17 5.872 5.084"/>
    <polygon fill="#E73E30" points="2.936 10.17 8.807 10.17 5.872 5.085"/>
    <polygon fill="#921A3D" points="8.807 0 5.872 5.084 11.744 5.084"/>
    <polygon fill="#BD1E51" points="5.872 5.084 8.807 10.17 11.744 5.084"/>
    <polygon fill="#E73E30" points="8.807 0 11.744 5.084 14.679 0"/>
    <polygon fill="#F08521" points="14.679 0 11.744 5.084 17.615 5.084"/>
    <polygon fill="#F9C125" points="11.744 5.084 14.679 10.17 17.615 5.084"/>
  </g>

</symbol>
<symbol id="equipment" viewBox="0 0 17 18">
  <g fill="none" fill-rule="evenodd">
    <polygon fill="#921A3D" points="0 9.44 2.725 7.866 2.725 4.72 2.734 4.716 0 3.137"/>
    <polygon fill="#E73E30" points="5.45 0 0 3.137 2.734 4.715 5.45 3.147"/>
    <polygon fill="#921A3D" points="10.902 0 10.902 3.147 13.626 4.721 16.369 3.137"/>
    <polygon fill="#E73E30" points="2.725 14.16 8.185 17.313 8.185 14.155 8.175 14.16 5.45 12.587"/>
    <polygon fill="#921A3D" points="10.9 12.587 8.185 14.155 8.185 17.313 13.626 14.16 10.902 12.587"/>
    <polygon fill="#E73E30" points="13.626 4.72 13.626 7.866 16.352 9.44 16.37 3.136"/>
    <polygon fill="#F08521" points="8.184 13.329 10.492 11.996 10.492 9.322 8.184 7.989"/>
    <polygon fill="#F9C125" points="6.218 9.115 5.859 9.322 5.859 11.996 8.176 13.333 8.176 7.985"/>
    <polygon fill="#F9C125" points="8.176 5.311 5.859 3.973 3.552 5.307 8.176 7.977"/>
    <polygon fill="#F08521" points="3.543 7.985 5.86 9.322 8.176 7.985 3.543 5.311"/>
    <polygon fill="#F9C125" points="8.184 7.98 8.183 7.981 8.175 7.985 8.184 7.989 10.492 9.322 10.5 9.318 12.808 7.985 12.808 5.311"/>
    <polygon fill="#F08521" points="8.184 7.98 12.808 5.311 10.492 3.973 8.184 5.306"/>
  </g>

</symbol>
<symbol id="error_icon" viewBox="0 0 16 16">
  <path fill="#F20" fill-rule="evenodd" d="M425.718,209.718 C425.331,210.105 424.702,210.105 424.315,209.718 L423.007,208.41 L421.694,209.722 C421.307,210.11 420.678,210.11 420.291,209.722 C419.903,209.335 419.903,208.707 420.291,208.319 L421.603,207.006 L420.291,205.694 C419.903,205.306 419.903,204.678 420.291,204.291 C420.678,203.903 421.307,203.903 421.694,204.291 L423.007,205.603 L424.315,204.295 C424.702,203.907 425.33,203.907 425.718,204.295 C426.105,204.683 426.105,205.311 425.718,205.698 L424.41,207.007 L425.718,208.315 C426.106,208.702 426.106,209.331 425.718,209.718 M423,199 C418.581,199 415,202.582 415,207 C415,211.418 418.581,215 423,215 C427.418,215 431,211.418 431,207 C431,202.582 427.418,199 423,199" transform="translate(-415 -199)"/>

</symbol>
<symbol id="failure_consequence" viewBox="0 0 16 16">
  <g fill="none" fill-rule="evenodd">
    <path fill="#E30E0E" d="M3.88457143 11.9581714L2.21542857 13.5164571C3.67257143 15.0438857 5.72285714 15.9998857 8 15.9998857 10.2771429 15.9998857 12.3274286 15.0438857 13.7845714 13.5164571L12.1154286 11.9581714C11.0754286 13.0387429 9.61828571 13.7141714 8 13.7141714 6.38171429 13.7141714 4.92457143 13.0387429 3.88457143 11.9581714zM12.1154286 4.0416L13.7845714 2.48388571C12.3274286.956457143 10.2771429-.000114285714 8-.000114285714 5.72285714-.000114285714 3.67257143.956457143 2.21542857 2.48388571L3.88457143 4.0416C4.92457143 2.96102857 6.38228571 2.2856 8 2.2856 9.61828571 2.2856 11.0754286 2.96102857 12.1154286 4.0416z"/>
    <path fill="#960909" d="M13.7142857 7.99988571C13.7142857 9.47588571 13.1497143 10.8176 12.2308571 11.8313143L13.9 13.3896C15.2005714 11.9667429 16 10.0793143 16 7.99988571 16 5.92102857 15.2005714 4.0336 13.9 2.61074286L12.2308571 4.16845714C13.1497143 5.18274286 13.7142857 6.52388571 13.7142857 7.99988571M3.76914286 4.16845714L2.1 2.61074286C.8 4.0336 0 5.92102857 0 7.99988571 0 10.0793143.8 11.9667429 2.1 13.3896L3.76914286 11.8313143C2.85028571 10.8176 2.28571429 9.47588571 2.28571429 7.99988571 2.28571429 6.52388571 2.85028571 5.18274286 3.76914286 4.16845714z"/>
    <polygon fill="#E30E0E" points="8 7.52 11.094 6.078 8 4.636 4.906 6.078"/>
    <polygon fill="#BC0B0B" points="4.906 10.117 8 11.847 8 7.521 4.906 6.078"/>
    <polygon fill="#560505" points="11.094 10.117 11.094 6.078 8 7.521 8 11.847"/>
  </g>

</symbol>
<symbol id="failure_mode" viewBox="0 0 16 16">
  <g fill="none" fill-rule="evenodd">
    <path fill="#8A45E4" d="M3.88457143 11.9581714L2.21542857 13.5164571C3.67257143 15.0438857 5.72285714 15.9998857 8 15.9998857 10.2771429 15.9998857 12.3274286 15.0438857 13.7845714 13.5164571L12.1154286 11.9581714C11.0754286 13.0387429 9.61828571 13.7141714 8 13.7141714 6.38171429 13.7141714 4.92457143 13.0387429 3.88457143 11.9581714zM12.1154286 4.0416L13.7845714 2.48388571C12.3274286.956457143 10.2771429-.000114285714 8-.000114285714 5.72285714-.000114285714 3.67257143.956457143 2.21542857 2.48388571L3.88457143 4.0416C4.92457143 2.96102857 6.38228571 2.2856 8 2.2856 9.61828571 2.2856 11.0754286 2.96102857 12.1154286 4.0416z"/>
    <path fill="#4D267E" d="M13.7142857 7.99988571C13.7142857 9.47588571 13.1497143 10.8176 12.2308571 11.8313143L13.9 13.3896C15.2005714 11.9667429 16 10.0793143 16 7.99988571 16 5.92102857 15.2005714 4.0336 13.9 2.61074286L12.2308571 4.16845714C13.1497143 5.18274286 13.7142857 6.52388571 13.7142857 7.99988571M3.76914286 4.16845714L2.1 2.61074286C.8 4.0336 0 5.92102857 0 7.99988571 0 10.0793143.8 11.9667429 2.1 13.3896L3.76914286 11.8313143C2.85028571 10.8176 2.28571429 9.47588571 2.28571429 7.99988571 2.28571429 6.52388571 2.85028571 5.18274286 3.76914286 4.16845714z"/>
    <polygon fill="#8A45E4" points="8 7.52 11.094 6.078 8 4.636 4.906 6.078"/>
    <polygon fill="#6432A5" points="4.906 10.117 8 11.847 8 7.521 4.906 6.078"/>
    <polygon fill="#351B58" points="11.094 10.117 11.094 6.078 8 7.521 8 11.847"/>
  </g>

</symbol>
<symbol id="file_doc" viewBox="0 0 20 21">
  <g fill="none" fill-rule="evenodd">
    <path fill="#1990F9" d="M19.1622816,19.2656005 C19.1622816,19.7074484 18.795118,20.0668777 18.3438137,20.0668777 L6.11867909,20.0668777 C5.66737474,20.0668777 5.30021118,19.7070815 5.30021118,19.2647446 L5.30021118,15.6521902 L12.2319296,15.6521902 C12.9060083,15.6521902 13.4543727,15.1125163 13.4543727,14.4492554 L13.4543727,8.42708152 C13.4543727,7.76373913 12.9060083,7.22410598 12.2319296,7.22410598 L5.30021118,7.22410598 L5.30021118,1.60766576 C5.30021118,1.16373913 5.66737474,0.802638587 6.11867909,0.802638587 L13.4543727,0.802638587 L13.4543727,6.02002989 C13.4543727,6.2416875 13.63694,6.42140217 13.8620745,6.42140217 L19.1622816,6.42140217 L19.1622816,19.2656005 Z M1.2224058,14.8494864 C0.997975155,14.8494864 0.815449275,14.6699755 0.815449275,14.4492554 L0.815449275,8.42708152 C0.815449275,8.20636141 0.998016563,8.02672826 1.2224058,8.02672826 L12.231971,8.02672826 C12.4563602,8.02672826 12.6389689,8.20636141 12.6389689,8.42708152 L12.6389689,14.4492554 C12.6389689,14.6699755 12.4563602,14.8494864 12.231971,14.8494864 L1.2224058,14.8494864 Z M14.2698178,1.08348098 L18.7037308,5.61873913 L14.2698178,5.61873913 L14.2698178,1.08348098 Z M19.8637308,5.64772011 L14.4625714,0.123032609 C14.385677,0.0444048913 14.2795901,1.63043478e-05 14.1687826,1.63043478e-05 L6.11867909,1.63043478e-05 C5.21776812,1.63043478e-05 4.48480745,0.72119837 4.48480745,1.60766576 L4.48480745,7.22410598 L1.2224058,7.22410598 C0.54836853,7.22410598 4.14078675e-06,7.76373913 4.14078675e-06,8.42708152 L4.14078675e-06,14.4492554 C4.14078675e-06,15.1125163 0.54836853,15.6521902 1.2224058,15.6521902 L4.48480745,15.6521902 L4.48480745,19.2647038 C4.48480745,20.1495815 5.21776812,20.8695815 6.11867909,20.8695815 L18.3438551,20.8695815 C19.244766,20.8695815 19.9777267,20.1499891 19.9777267,19.2656005 L19.9777267,5.92599457 C19.9777267,5.82221739 19.9368571,5.7225163 19.8637308,5.64772011 L19.8637308,5.64772011 Z"/>
    <path fill="#000" d="M4.11763975 12.1541821C4.06993789 12.308625 4.00815735 12.4194946 3.93254658 12.4868723 3.85689441 12.5542908 3.76169772 12.6021848 3.64703934 12.6303913 3.55950311 12.6523614 3.41689441 12.6632446 3.2194617 12.6632446L2.69151139 12.6632446 2.69151139 10.3798207 3.00919255 10.3798207C3.29755694 10.3798207 3.49101449 10.3907853 3.58977226 10.4127554 3.72198758 10.4410435 3.8310559 10.4951739 3.91706004 10.5750245 4.00298137 10.6549973 4.06993789 10.7663152 4.11763975 10.909019 4.16542443 11.0516005 4.18939964 11.2562201 4.18939964 11.5227962 4.18944099 11.7893315 4.16546584 11.9997799 4.11763975 12.1541821M4.80567288 10.7385163C4.72923395 10.5182446 4.61784679 10.3321304 4.47126294 10.1800109 4.32480331 10.0279321 4.14877847 9.92215761 3.94331263 9.86256522 3.79043478 9.81858424 3.56832298 9.79677717 3.27681159 9.79677717L1.98447205 9.79677717 1.98447205 13.2441277 3.31503106 13.2441277C3.57627329 13.2441277 3.78492754 13.2199158 3.94095238 13.1711658 4.14960663 13.105337 4.3152381 13.013625 4.43784679 12.8960707 4.60033126 12.740894 4.72530021 12.5378641 4.81296066 12.2870625 4.88459627 12.0816685 4.92037267 11.8371848 4.92037267 11.5533261 4.92033126 11.2304185 4.8821118 10.9588288 4.80567288 10.7385163M11.5663644 11.9766114C11.5073582 12.2290027 11.4102153 12.4140571 11.274853 12.5315707 11.1394907 12.6491658 10.9778344 12.7079429 10.7898841 12.7079429 10.5351014 12.7079429 10.3281035 12.6154565 10.1688489 12.4305652 10.0095528 12.2455516 9.92992547 11.9350353 9.92992547 11.4992609 9.92992547 11.0885951 10.0107536 10.7914891 10.1724099 10.608106 10.3340663 10.4246005 10.5446667 10.3328478 10.804294 10.3328478 10.9922443 10.3328478 11.1518302 10.3846141 11.2832174 10.4880245 11.4146046 10.5915978 11.5010642 10.7326304 11.5424306 10.9113668L12.2423892 10.7466929C12.1628033 10.4707826 12.043383 10.2591929 11.8841284 10.1118016 11.6165507 9.86258967 11.2686418 9.73794293 10.8401946 9.73794293 10.3495942 9.73794293 9.95381781 9.89666576 9.65286542 10.2141522 9.35191304 10.5316386 9.20131263 10.9771549 9.20131263 11.5509864 9.20131263 12.0933913 9.35108489 12.5209728 9.65050518 12.8337717 9.94984265 13.1465299 10.3320787 13.3029293 10.7971718 13.3029293 11.1729482 13.3029293 11.4831346 13.211625 11.7276894 13.028894 11.9720787 12.8463261 12.1469027 12.5668696 12.2519959 12.1906467L11.5663644 11.9766114zM7.77156108 12.4081834C7.59085714 12.608034 7.35946998 12.7079389 7.07752381 12.7079389 6.79570186 12.7079389 6.56319669 12.6072595 6.38004969 12.4058601 6.19690269 12.2043791 6.10526708 11.9084959 6.10526708 11.5181291 6.10526708 11.1214851 6.19445963 10.8247867 6.37280331 10.628034 6.55118841 10.4312812 6.78613665 10.3328437 7.07752381 10.3328437 7.3690352 10.3328437 7.6027412 10.4300584 7.77868323 10.6245285 7.95470807 10.8188764 8.04265839 11.113659 8.04265839 11.5086726 8.04265839 11.9084959 7.95234783 12.2082921 7.77156108 12.4081834M8.30911801 10.2106427C7.99926294 9.89547962 7.58646791 9.73793886 7.07040166 9.73793886 6.78530849 9.73793886 6.53375569 9.78338723 6.31553623 9.87428397 6.15151967 9.94170245 6.00058799 10.0451535 5.86286542 10.1847187 5.72506004 10.3241617 5.6164058 10.481784 5.53669565 10.6573818 5.42998758 10.8956698 5.37669565 11.1903709 5.37669565 11.5415258 5.37669565 12.0902486 5.53040166 12.5210095 5.83768944 12.8336861 6.14510145 13.1464851 6.55926294 13.3028845 7.08000828 13.3028845 7.59441822 13.3028845 8.00530849 13.1457921 8.3127205 12.8314035 8.62000828 12.5170557 8.77371429 12.0816073 8.77371429 11.5250584 8.77371429 10.9637812 8.61884886 10.5256834 8.30911801 10.2106427"/>
  </g>

</symbol>
<symbol id="file_jpg" viewBox="0 0 20 22">
  <g fill="none" fill-rule="evenodd">
    <path fill="#26A65B" d="M19.1622816,19.8289222 C19.1622816,20.2836895 18.795118,20.6536285 18.3438137,20.6536285 L6.11867909,20.6536285 C5.66737474,20.6536285 5.30021118,20.283312 5.30021118,19.8280412 L5.30021118,16.1098566 L12.2320124,16.1098566 C12.9060497,16.1098566 13.4544141,15.5544027 13.4544141,14.8717483 L13.4544141,8.67348741 C13.4544141,7.99074905 12.9060497,7.43533715 12.2320124,7.43533715 L5.30021118,7.43533715 L5.30021118,1.65467353 C5.30021118,1.19776659 5.66737474,0.826107551 6.11867909,0.826107551 L13.4543727,0.826107551 L13.4543727,6.19605416 C13.4543727,6.42419298 13.63694,6.60916247 13.8620745,6.60916247 L19.1622816,6.60916247 L19.1622816,19.8289222 Z M1.2224058,15.2836819 C0.997975155,15.2836819 0.815449275,15.0989222 0.815449275,14.8717483 L0.815449275,8.67348741 C0.815449275,8.4463135 0.998016563,8.26142792 1.2224058,8.26142792 L12.2320124,8.26142792 C12.4564431,8.26142792 12.6389689,8.4463135 12.6389689,8.67348741 L12.6389689,14.8717483 C12.6389689,15.0989222 12.4564017,15.2836819 12.2320124,15.2836819 L1.2224058,15.2836819 Z M14.2698178,1.11516171 L18.7037308,5.78302975 L14.2698178,5.78302975 L14.2698178,1.11516171 Z M19.8637308,5.81285812 L14.4625714,0.126630053 C14.385677,0.0457032799 14.2795901,1.67810831e-05 14.1687826,1.67810831e-05 L6.11867909,1.67810831e-05 C5.21776812,1.67810831e-05 4.48480745,0.742286041 4.48480745,1.65467353 L4.48480745,7.43533715 L1.2224058,7.43533715 C0.54836853,7.43533715 4.14078675e-06,7.99074905 4.14078675e-06,8.67348741 L4.14078675e-06,14.8717483 C4.14078675e-06,15.5544027 0.54836853,16.1098566 1.2224058,16.1098566 L4.48480745,16.1098566 L4.48480745,19.8279992 C4.48480745,20.7387506 5.21776812,21.4798032 6.11867909,21.4798032 L18.3438551,21.4798032 C19.244766,21.4798032 19.9777267,20.7391701 19.9777267,19.8289222 L19.9777267,6.09926926 C19.9777267,5.99245767 19.9368571,5.88984134 19.8637308,5.81285812 L19.8637308,5.81285812 Z"/>
    <path fill="#000" d="M9.60025673 11.7289786L9.60025673 12.3268047 10.4101118 12.3268047 10.4101118 12.7770412C10.3033623 12.8609047 10.1755776 12.9322662 10.0266749 12.9912517 9.87777226 13.0501114 9.72924224 13.0795202 9.58112629 13.0795202 9.281706 13.0795202 9.03963561 12.9743448 8.85491511 12.7637422 8.67015321 12.5531815 8.57781366 12.2372777 8.57781366 11.8161564 8.57781366 11.4257025 8.66899379 11.1311526 8.85135404 10.9326743 9.03371429 10.734196 9.27934576 10.6349359 9.58833126 10.6349359 9.79218219 10.6349359 9.9622029 10.685447 10.0983106 10.7862174 10.2344596 10.8871137 10.3272547 11.0246766 10.3766957 11.1989062L11.0789731 11.0657483C11.0089524 10.7398596 10.8516853 10.4844935 10.6071304 10.2997338 10.3627412 10.1149741 10.0231139 10.0226362 9.58833126 10.0226362 9.25387992 10.0226362 8.97437681 10.0814958 8.74982195 10.199341 8.45520497 10.3525942 8.23143685 10.5728459 8.07855901 10.8600542 7.92568116 11.1472624 7.84924224 11.4756262 7.84924224 11.8451037 7.84924224 12.1855919 7.91773085 12.5006568 8.05466667 12.7902143 8.19164389 13.0798978 8.39628157 13.3025408 8.66862112 13.4582693 8.94096066 13.6139977 9.26025673 13.6918619 9.62659213 13.6918619 9.91487371 13.6918619 10.1995114 13.6366102 10.4806294 13.5260229 10.7617474 13.4155195 10.9762402 13.2876895 11.1245217 13.1424912L11.1245217 11.7289367 9.60025673 11.7289367 9.60025673 11.7289786zM6.58187164 11.4603806C6.5285383 11.5393776 6.45487371 11.597566 6.36087785 11.6346102 6.2669234 11.6716545 6.08058799 11.6902395 5.80187164 11.6902395L5.41487371 11.6902395 5.41487371 10.6833745 5.75648861 10.6833745C6.01131263 10.6833745 6.18091925 10.6914294 6.26530849 10.7075393 6.37996687 10.7285995 6.47474948 10.7809565 6.5495735 10.8649458 6.62443892 10.9487674 6.66187168 11.0553272 6.66187168 11.1844157 6.66191304 11.2892555 6.63524638 11.3812578 6.58187164 11.4603806M7.1874617 10.4837635C7.05209938 10.3054226 6.88406625 10.1896751 6.68340373 10.1363532 6.55280331 10.1008192 6.27251346 10.0831991 5.84249275 10.0831991L4.70775155 10.0831991 4.70775155 13.6313913 5.41487371 13.6313913 5.41487371 12.2929321 5.87595031 12.2929321C6.19607453 12.2929321 6.44054658 12.2759832 6.60932505 12.2421274 6.73354865 12.2146484 6.85578468 12.1585995 6.97603313 12.073897 7.09628157 11.9892365 7.19541201 11.8726079 7.27346584 11.7241373 7.35151967 11.5757506 7.39052588 11.3925431 7.39052588 11.1747246 7.39052588 10.8924249 7.32282402 10.6620206 7.1874617 10.4837635M3.2505176 10.0832159L3.2505176 12.3752182C3.2505176 12.6624264 3.2178882 12.8515912 3.15258799 12.9427963 3.08728778 13.0339596 2.97581781 13.0794783 2.81813665 13.0794783 2.66207039 13.0794783 2.5457971 13.015836 2.46935818 12.8883417 2.41838509 12.8043944 2.3889441 12.6608322 2.38095238 12.4575294L1.71445135 12.5349741C1.71602484 12.9141846 1.8100207 13.2017285 1.99635611 13.3977315 2.18269151 13.5938604 2.44865424 13.6918619 2.79424431 13.6918619 3.08886128 13.6918619 3.32616977 13.6292685 3.50612836 13.5042914 3.68608696 13.3792723 3.81031056 13.2134333 3.87879917 13.0069001 3.92977226 12.8487803 3.9552381 12.622865 3.9552381 12.3292799L3.9552381 10.0832159 3.2505176 10.0832159z"/>
  </g>

</symbol>
<symbol id="file_other" viewBox="0 0 20 21">
  <path fill="#1825AA" fill-rule="evenodd" d="M19.183665,19.386043 C19.183665,19.8306502 18.8160707,20.192355 18.3642728,20.192355 L6.12541422,20.192355 C5.67361627,20.192355 5.30602199,19.8302401 5.30602199,19.3850177 L5.30602199,15.7499231 L12.2457503,15.7499231 C12.9204159,15.7499231 13.4693719,15.2069301 13.4693719,14.5395066 L13.4693719,8.47968272 C13.4693719,7.81215668 12.9204159,7.26926626 12.2457503,7.26926626 L5.30602199,7.26926626 L5.30602199,1.61785343 C5.30602199,1.17104165 5.67361627,0.807747521 6.12541422,0.807747521 L13.4693719,0.807747521 L13.4693719,6.05761935 C13.4693719,6.28074326 13.6521327,6.46157001 13.877643,6.46157001 L19.183665,6.46157001 L19.183665,19.386043 Z M1.22377704,14.9421756 C0.999095782,14.9421756 0.816334991,14.7616052 0.816334991,14.5395066 L0.816334991,8.47968272 C0.816334991,8.25753292 0.999095782,8.07691125 1.22377704,8.07691125 L12.2457503,8.07691125 C12.4704316,8.07691125 12.6530369,8.25753292 12.6530369,8.47968272 L12.6530369,14.5395066 C12.6530369,14.7616052 12.4702243,14.9421756 12.2457503,14.9421756 L1.22377704,14.9421756 Z M14.2857069,1.0903438 L18.7246126,5.65387376 L14.2857069,5.65387376 L14.2857069,1.0903438 Z M19.886053,5.68294344 L14.4787794,0.123764044 C14.4016747,0.044706813 14.2956041,0 14.1846625,0 L6.12541422,0 C5.22368377,0 4.48973881,0.72581921 4.48973881,1.61785343 L4.48973881,7.26926626 L1.22377704,7.26926626 C0.548956004,7.26926626 0,7.81215668 0,8.47968272 L0,14.5395066 C0,15.2069301 0.548956004,15.7499231 1.22377704,15.7499231 L4.48973881,15.7499231 L4.48973881,19.3850177 C4.48973881,20.2754625 5.22368377,21 6.12541422,21 L18.3642728,21 C19.2662623,21 20,20.2758214 20,19.386043 L20,5.96313006 C20,5.85854073 19.9591159,5.75815548 19.886053,5.68294344 L19.886053,5.68294344 Z"/>

</symbol>
<symbol id="file_pdf" viewBox="0 0 20 21">
  <g fill="none" fill-rule="evenodd">
    <path fill="#FF3B30" d="M19.1622816,19.2656005 C19.1622816,19.7074484 18.795118,20.0668777 18.3438137,20.0668777 L6.11867909,20.0668777 C5.66737474,20.0668777 5.30021118,19.7070815 5.30021118,19.2647446 L5.30021118,15.6521902 L12.2320124,15.6521902 C12.9060497,15.6521902 13.4544141,15.1125163 13.4544141,14.4492554 L13.4544141,8.42708152 C13.4544141,7.76373913 12.9060497,7.22410598 12.2320124,7.22410598 L5.30021118,7.22410598 L5.30021118,1.60766576 C5.30021118,1.16373913 5.66737474,0.802638587 6.11867909,0.802638587 L13.4543727,0.802638587 L13.4543727,6.02002989 C13.4543727,6.2416875 13.63694,6.42140217 13.8620745,6.42140217 L19.1622816,6.42140217 L19.1622816,19.2656005 Z M1.2224058,14.8494864 C0.997975155,14.8494864 0.815449275,14.6699755 0.815449275,14.4492554 L0.815449275,8.42708152 C0.815449275,8.20636141 0.998016563,8.02672826 1.2224058,8.02672826 L12.2320124,8.02672826 C12.4564431,8.02672826 12.6389689,8.20636141 12.6389689,8.42708152 L12.6389689,14.4492554 C12.6389689,14.6699755 12.4564017,14.8494864 12.2320124,14.8494864 L1.2224058,14.8494864 Z M14.2698178,1.08348098 L18.7037308,5.61873913 L14.2698178,5.61873913 L14.2698178,1.08348098 Z M19.8637308,5.64772011 L14.4625714,0.123032609 C14.385677,0.0444048913 14.2795901,1.63043478e-05 14.1687826,1.63043478e-05 L6.11867909,1.63043478e-05 C5.21776812,1.63043478e-05 4.48480745,0.72119837 4.48480745,1.60766576 L4.48480745,7.22410598 L1.2224058,7.22410598 C0.54836853,7.22410598 4.14078675e-06,7.76373913 4.14078675e-06,8.42708152 L4.14078675e-06,14.4492554 C4.14078675e-06,15.1125163 0.54836853,15.6521902 1.2224058,15.6521902 L4.48480745,15.6521902 L4.48480745,19.2647038 C4.48480745,20.1495815 5.21776812,20.8695815 6.11867909,20.8695815 L18.3438551,20.8695815 C19.244766,20.8695815 19.9777267,20.1499891 19.9777267,19.2656005 L19.9777267,5.92599457 C19.9777267,5.82221739 19.9368571,5.7225163 19.8637308,5.64772011 L19.8637308,5.64772011 Z"/>
    <path fill="#000" d="M4.26861284 11.1347649C4.2152795 11.2115992 4.14161491 11.268053 4.04761905 11.3040856 3.95362319 11.340159 3.76732919 11.3581753 3.48861284 11.3581753L3.10161491 11.3581753 3.10161491 10.3799144 3.44322981 10.3799144C3.69805383 10.3799144 3.86766046 10.3877405 3.95204969 10.4034334 4.06670807 10.4238139 4.16149068 10.4747649 4.2363147 10.5563274 4.31118012 10.6378492 4.34861288 10.7413003 4.34861288 10.8666807 4.34865424 10.9685829 4.32194617 11.0579307 4.26861284 11.1347649M4.8742029 10.1858927C4.73884058 10.012659 4.57080745 9.90015897 4.37014493 9.84843342 4.23954451 9.81394973 3.95925466 9.79670788 3.52923395 9.79670788L2.39449275 9.79670788 2.39449275 13.2441399 3.10161491 13.2441399 3.10161491 11.9437052 3.56269151 11.9437052C3.88281573 11.9437052 4.12728778 11.9272378 4.29610766 11.894303 4.42033126 11.8676454 4.54256729 11.8132296 4.66281573 11.7308519 4.78306418 11.6485557 4.88219462 11.5352813 4.96024845 11.3910693 5.03830228 11.2468573 5.07730849 11.0688954 5.07730849 10.8572649 5.07726708 10.5829035 5.00956522 10.3591264 4.8742029 10.1858927M7.78866253 12.1541821C7.74087785 12.308625 7.67918012 12.4195761 7.60352795 12.486913 7.52787578 12.5543315 7.4327205 12.602144 7.31806211 12.6303913 7.23048447 12.6523614 7.08791718 12.6632853 6.89044306 12.6632853L6.36249275 12.6632853 6.36249275 10.3799022 6.68021532 10.3799022C6.96845549 10.3799022 7.16199586 10.3908668 7.26071222 10.412837 7.39288613 10.4410435 7.50199586 10.4951739 7.588 10.5751467 7.67400414 10.6551196 7.74087785 10.766356 7.78866253 10.909019 7.8364472 11.0516821 7.86033954 11.2563016 7.86033954 11.522837 7.86033954 11.7893315 7.8364472 11.9997391 7.78866253 12.1541821M8.47669565 10.7385571C8.40025673 10.5182446 8.28874534 10.3320897 8.14224431 10.1800109 7.99574327 10.0279321 7.81971843 9.92211685 7.614294 9.86252446 7.46141615 9.818625 7.23922153 9.79673641 6.94779296 9.79673641L5.6553706 9.79673641 5.6553706 13.2441277 6.98601242 13.2441277C7.24721325 13.2441277 7.45582609 13.219875 7.61189234 13.1712065 7.82054658 13.1053777 7.98617805 13.0136658 8.10878675 12.8960707 8.27122981 12.740894 8.39624017 12.5378641 8.48385921 12.2870625 8.55553623 12.0816685 8.59135404 11.8371033 8.59135404 11.5533668 8.59135404 11.2303777 8.55313458 10.9588288 8.47669565 10.7385571"/>
    <polygon fill="#000" points="11.597 10.38 11.597 9.797 9.196 9.797 9.196 13.244 9.903 13.244 9.903 11.779 11.365 11.779 11.365 11.196 9.903 11.196 9.903 10.38"/>
  </g>

</symbol>
<symbol id="file_png" viewBox="0 0 20 21">
  <g fill="none" fill-rule="evenodd">
    <path fill="#28B464" d="M19.182114,19.3711664 C19.182114,19.8142613 18.8145492,20.1747358 18.3627876,20.1747358 L6.12491192,20.1747358 C5.67315026,20.1747358 5.30558549,19.8138526 5.30558549,19.3701445 L5.30558549,15.7474146 L12.2447565,15.7474146 C12.9193679,15.7474146 13.4682798,15.2062686 13.4682798,14.5411153 L13.4682798,8.50190365 C13.4682798,7.83664818 12.9193679,7.29560438 12.2447565,7.29560438 L5.30558549,7.29560438 L5.30558549,1.6634146 C5.30558549,1.21812263 5.67315026,0.856064234 6.12491192,0.856064234 L13.4682798,0.856064234 L13.4682798,6.08807883 C13.4682798,6.3104438 13.6510259,6.49065547 13.8765181,6.49065547 L19.182114,6.49065547 L19.182114,19.3711664 Z M1.22366839,14.9424146 C0.999005181,14.9424146 0.816259067,14.7624584 0.816259067,14.5411153 L0.816259067,8.50190365 C0.816259067,8.28050949 0.999005181,8.10050219 1.22366839,8.10050219 L12.2447565,8.10050219 C12.4694197,8.10050219 12.6520104,8.28050949 12.6520104,8.50190365 L12.6520104,14.5411153 C12.6520104,14.7624584 12.4692124,14.9424146 12.2447565,14.9424146 L1.22366839,14.9424146 Z M14.2845492,1.13769927 L18.7230984,5.68570657 L14.2845492,5.68570657 L14.2845492,1.13769927 Z M19.8844456,5.71467737 L14.4776062,0.174407299 C14.4005078,0.0956189781 14.2944456,0.0510642336 14.183513,0.0510642336 L6.12491192,0.0510642336 C5.22325389,0.0510642336 4.48936788,0.774414599 4.48936788,1.6634146 L4.48936788,7.29560438 L1.22366839,7.29560438 C0.548901554,7.29560438 -1.03626943e-05,7.83664818 -1.03626943e-05,8.50190365 L-1.03626943e-05,14.5411153 C-1.03626943e-05,15.2062686 0.548901554,15.7474146 1.22366839,15.7474146 L4.48936788,15.7474146 L4.48936788,19.3701445 C4.48936788,20.2575606 5.22325389,20.9796336 6.12491192,20.9796336 L18.3627876,20.9796336 C19.2347565,20.9796336 19.9493161,20.3050788 19.9958446,19.4589985 L19.9958446,5.95073577 C19.9862591,5.8623927 19.9473472,5.77921022 19.8844456,5.71467737 L19.8844456,5.71467737 Z"/>
    <path fill="#231F20" d="M3.86496373,11.2173416 C3.81149223,11.2943927 3.73786528,11.3510058 3.64372021,11.3871299 C3.54962694,11.4230496 3.36299482,11.4412905 3.0840829,11.4412905 L2.69672539,11.4412905 L2.69672539,10.4603197 L3.03859067,10.4603197 C3.29377202,10.4603197 3.46361658,10.468035 3.54802073,10.4838745 C3.66273575,10.5044146 3.75765803,10.5553051 3.83258031,10.6371591 C3.90745078,10.7187066 3.94511917,10.8226847 3.94511917,10.9484292 C3.94491192,11.050619 3.91838342,11.1402394 3.86496373,11.2173416 M3.96656995,9.9274 C3.83584456,9.89265547 3.55527461,9.87548759 3.12480829,9.87548759 L1.98895337,9.87548759 L1.98895337,13.3325168 L2.69672539,13.3325168 L2.69672539,12.028473 L3.15817617,12.028473 C3.47879793,12.028473 3.72346114,12.0121226 3.89247668,11.9789109 C4.01672539,11.9522394 4.13921244,11.8975679 4.25941969,11.8150496 C4.37988601,11.7326847 4.47900518,11.6188453 4.5571399,11.4743489 C4.63527461,11.3296482 4.67434197,11.1512759 4.67434197,10.9391299 C4.67434197,10.6638818 4.60656995,10.4395241 4.47112953,10.2656993 C4.33553368,10.0920788 4.16734715,9.97931241 3.96656995,9.9274"/>
    <polygon fill="#231F20" points="7.386 12.184 5.951 9.875 5.263 9.875 5.263 13.333 5.92 13.333 5.92 11.078 7.334 13.333 8.044 13.333 8.044 9.875 7.386 9.875"/>
    <path fill="#231F20" d="M10.4232124,12.0615518 L11.2339896,12.0615518 L11.2339896,12.5002526 C11.1271503,12.5819533 10.9992228,12.6513401 10.8500518,12.7088219 C10.7010881,12.7663036 10.5523316,12.7949168 10.4041969,12.7949168 C10.104456,12.7949168 9.86196891,12.6925226 9.67720207,12.4873255 C9.49217617,12.2821285 9.39968912,11.9743328 9.39968912,11.5640409 C9.39968912,11.1835883 9.49098446,10.8965883 9.67352332,10.7031942 C9.85611399,10.5097489 10.1020207,10.4129752 10.4112953,10.4129752 C10.615285,10.4129752 10.7854922,10.4622818 10.9219171,10.5604861 C11.0581347,10.6586394 11.1510363,10.7927635 11.2004145,10.962654 L11.9035233,10.8329241 C11.8335233,10.5153693 11.6760622,10.2664861 11.4313472,10.0864277 C11.1864249,9.90642044 10.8466321,9.81639124 10.4112953,9.81639124 C10.0765285,9.81639124 9.79678756,9.87387299 9.5719171,9.98863212 C9.27704663,10.1379314 9.05300518,10.3524788 8.9,10.6323255 C8.74694301,10.9121212 8.67046632,11.2321285 8.67046632,11.5921431 C8.67046632,11.9239022 8.7388601,12.2308292 8.87611399,12.5130263 C9.01310881,12.7952745 9.21792746,13.0122234 9.49056995,13.1639241 C9.76321244,13.3155737 10.0830052,13.3914496 10.4495337,13.3914496 C10.7381347,13.3914496 11.0231088,13.3378 11.304456,13.2299898 C11.5857513,13.1221796 11.8007254,12.9976613 11.9488601,12.8561285 L11.9488601,11.479019 L10.4232124,11.479019 L10.4232124,12.0615518 Z"/>
  </g>

</symbol>
<symbol id="file_xls" viewBox="0 0 20 22">
  <g fill="none" fill-rule="evenodd">
    <path fill="#77DC01" d="M19.1622816,19.8289222 C19.1622816,20.2836895 18.795118,20.6536285 18.3438137,20.6536285 L6.11867909,20.6536285 C5.66737474,20.6536285 5.30021118,20.283312 5.30021118,19.8280412 L5.30021118,16.1098566 L12.2319296,16.1098566 C12.9060083,16.1098566 13.4543727,15.5544027 13.4543727,14.8717483 L13.4543727,8.67348741 C13.4543727,7.99074905 12.9060083,7.43533715 12.2319296,7.43533715 L5.30021118,7.43533715 L5.30021118,1.65467353 C5.30021118,1.19776659 5.66737474,0.826107551 6.11867909,0.826107551 L13.4543727,0.826107551 L13.4543727,6.19605416 C13.4543727,6.42419298 13.63694,6.60916247 13.8620745,6.60916247 L19.1622816,6.60916247 L19.1622816,19.8289222 Z M1.2224058,15.2836819 C0.997975155,15.2836819 0.815449275,15.0989222 0.815449275,14.8717483 L0.815449275,8.67348741 C0.815449275,8.4463135 0.998016563,8.26142792 1.2224058,8.26142792 L12.231971,8.26142792 C12.4563602,8.26142792 12.6389689,8.4463135 12.6389689,8.67348741 L12.6389689,14.8717483 C12.6389689,15.0989222 12.4563602,15.2836819 12.231971,15.2836819 L1.2224058,15.2836819 Z M14.2698178,1.11516171 L18.7037308,5.78302975 L14.2698178,5.78302975 L14.2698178,1.11516171 Z M19.8637308,5.81285812 L14.4625714,0.126630053 C14.385677,0.0457032799 14.2795901,1.67810831e-05 14.1687826,1.67810831e-05 L6.11867909,1.67810831e-05 C5.21776812,1.67810831e-05 4.48480745,0.742286041 4.48480745,1.65467353 L4.48480745,7.43533715 L1.2224058,7.43533715 C0.54836853,7.43533715 4.14078675e-06,7.99074905 4.14078675e-06,8.67348741 L4.14078675e-06,14.8717483 C4.14078675e-06,15.5544027 0.54836853,16.1098566 1.2224058,16.1098566 L4.48480745,16.1098566 L4.48480745,19.8279992 C4.48480745,20.7387506 5.21776812,21.4798032 6.11867909,21.4798032 L18.3438551,21.4798032 C19.244766,21.4798032 19.9777267,20.7391701 19.9777267,19.8289222 L19.9777267,6.09926926 C19.9777267,5.99245767 19.9368571,5.88984134 19.8637308,5.81285812 L19.8637308,5.81285812 Z"/>
    <path fill="#000" d="M11.1749689,12.0328463 C11.0818012,11.8802643 10.9528157,11.7601117 10.787971,11.672095 C10.6231677,11.584246 10.3687578,11.499124 10.0247826,11.4168127 C9.68076605,11.3345015 9.4642029,11.2554626 9.37496894,11.1796541 C9.30482402,11.1199134 9.26979296,11.0480065 9.26979296,10.964185 C9.26979296,10.8722246 9.30722567,10.7987654 9.38217391,10.7439333 C9.4984058,10.6584336 9.65927536,10.6156838 9.86465839,10.6156838 C10.063706,10.6156838 10.2131056,10.6556648 10.3126501,10.7354588 C10.4121118,10.8152948 10.4770393,10.946439 10.5072671,11.1287654 L11.2143478,11.097259 C11.2032919,10.7713703 11.086646,10.5107601 10.8644513,10.3155542 C10.6422567,10.1203063 10.3114493,10.0226823 9.87190476,10.0226823 C9.60271222,10.0226823 9.37298137,10.063754 9.18267081,10.1461491 C8.99240166,10.2284603 8.84664596,10.3482353 8.74552795,10.505516 C8.64436853,10.6628806 8.59376812,10.83195 8.59376812,11.0126823 C8.59376812,11.2933459 8.70126294,11.5313856 8.91637681,11.7266754 C9.06921325,11.8653711 9.33513458,11.9823772 9.71426501,12.0775259 C10.0087992,12.1518242 10.1975776,12.203426 10.280352,12.2324573 C10.4014286,12.2760461 10.4861905,12.3272704 10.5347205,12.3861301 C10.5833747,12.4451156 10.6076398,12.5163932 10.6076398,12.6003825 C10.6076398,12.7310652 10.5498758,12.8452185 10.4344306,12.9428005 C10.3189441,13.0404245 10.1474327,13.0892574 9.91964803,13.0892574 C9.70461698,13.0892574 9.53380952,13.0344252 9.40726708,12.924635 C9.28064182,12.8149706 9.19670807,12.6431323 9.15521739,12.4091201 L8.46714286,12.4768738 C8.51335404,12.8738303 8.65513458,13.1760156 8.89240166,13.383304 C9.12971014,13.5905923 9.46971014,13.6942994 9.91248447,13.6942994 C10.2166253,13.6942994 10.4707453,13.6510881 10.6745963,13.5647914 C10.8784886,13.4785786 11.0360455,13.3465534 11.1475569,13.1690515 C11.2590269,12.9916335 11.3148033,12.8011682 11.3148033,12.5978654 C11.3147205,12.3736281 11.2681366,12.1852605 11.1749689,12.0328463"/>
    <polygon fill="#000" points="6.384 13.034 6.384 10.112 5.677 10.112 5.677 13.631 8.142 13.631 8.142 13.034"/>
    <polygon fill="#000" points="4.098 11.806 5.187 10.083 4.368 10.083 3.68 11.223 2.977 10.083 2.151 10.083 3.235 11.78 2.039 13.631 2.887 13.631 3.665 12.404 4.442 13.631 5.295 13.631"/>
  </g>

</symbol>
<symbol id="function" viewBox="0 0 16 16">
  <g fill="none" fill-rule="evenodd">
    <path fill="#D395D6" d="M8 13.7141714C6.38171429 13.7141714 4.92457143 13.0387429 3.88457143 11.9581714L2.21542857 13.5164571C3.67257143 15.0438857 5.72285714 15.9998857 8 15.9998857 10.2771429 15.9998857 12.3274286 15.0438857 13.7845714 13.5164571L12.1154286 11.9581714C11.0754286 13.0387429 9.61828571 13.7141714 8 13.7141714M8 2.2856C9.61828571 2.2856 11.0754286 2.96102857 12.1154286 4.0416L13.7845714 2.48388571C12.3274286.956457143 10.2771429-.000114285714 8-.000114285714 5.72285714-.000114285714 3.67257143.956457143 2.21542857 2.48388571L3.88457143 4.0416C4.92457143 2.96102857 6.38228571 2.2856 8 2.2856"/>
    <path fill="#88608A" d="M13.7142857 7.99988571C13.7142857 9.47588571 13.1497143 10.8176 12.2308571 11.8313143L13.9 13.3896C15.2005714 11.9667429 16 10.0793143 16 7.99988571 16 5.92102857 15.2005714 4.0336 13.9 2.61074286L12.2308571 4.16845714C13.1497143 5.18274286 13.7142857 6.52388571 13.7142857 7.99988571M2.28571429 7.99988571C2.28571429 6.52388571 2.85028571 5.18274286 3.76914286 4.16845714L2.1 2.61074286C.8 4.0336 0 5.92102857 0 7.99988571 0 10.0793143.8 11.9667429 2.1 13.3896L3.76914286 11.8313143C2.85028571 10.8176 2.28571429 9.47588571 2.28571429 7.99988571"/>
    <polygon fill="#D395D6" points="8 7.52 11.094 6.078 8 4.636 4.906 6.078"/>
    <polygon fill="#956997" points="4.906 10.117 8 11.847 8 7.521 4.906 6.078"/>
    <polygon fill="#49344A" points="11.094 10.117 11.094 6.078 8 7.521 8 11.847"/>
  </g>

</symbol>
<symbol id="function_failure" viewBox="0 0 16 16">
  <g fill="none" fill-rule="evenodd">
    <path fill="#60D7EA" d="M8 13.7141714C6.38171429 13.7141714 4.92457143 13.0387429 3.88457143 11.9581714L2.21542857 13.5164571C3.67257143 15.0438857 5.72285714 15.9998857 8 15.9998857 10.2771429 15.9998857 12.3274286 15.0438857 13.7845714 13.5164571L12.1154286 11.9581714C11.0754286 13.0387429 9.61828571 13.7141714 8 13.7141714M8 2.2856C9.61828571 2.2856 11.0754286 2.96102857 12.1154286 4.0416L13.7845714 2.48388571C12.3274286.956457143 10.2771429-.000114285714 8-.000114285714 5.72285714-.000114285714 3.67257143.956457143 2.21542857 2.48388571L3.88457143 4.0416C4.92457143 2.96102857 6.38228571 2.2856 8 2.2856"/>
    <path fill="#377A84" d="M13.7142857 7.99988571C13.7142857 9.47588571 13.1497143 10.8176 12.2308571 11.8313143L13.9 13.3896C15.2005714 11.9667429 16 10.0793143 16 7.99988571 16 5.92102857 15.2005714 4.0336 13.9 2.61074286L12.2308571 4.16845714C13.1497143 5.18274286 13.7142857 6.52388571 13.7142857 7.99988571M3.76914286 4.16845714L2.1 2.61074286C.8 4.0336 0 5.92102857 0 7.99988571 0 10.0793143.8 11.9667429 2.1 13.3896L3.76914286 11.8313143C2.85028571 10.8176 2.28571429 9.47588571 2.28571429 7.99988571 2.28571429 6.52388571 2.85028571 5.18274286 3.76914286 4.16845714z"/>
    <polygon fill="#60D7EA" points="8 7.52 11.094 6.078 8 4.636 4.906 6.078"/>
    <polygon fill="#41919E" points="4.906 10.117 8 11.847 8 7.521 4.906 6.078"/>
    <polygon fill="#27565E" points="11.094 10.117 11.094 6.078 8 7.521 8 11.847"/>
  </g>

</symbol>
<symbol id="location" viewBox="0 0 16 18">
  <g fill="none" fill-rule="evenodd">
    <polygon fill="#921A3D" points="7.585 14.457 7.584 14.456 7.584 14.457 4.124 12.465 2.606 11.593 2.606 11.59 2.604 11.593 .004 13.088 .004 13.091 7.585 17.453 15.167 13.091 12.563 11.593"/>
    <polygon fill="#F08521" points="12.563 5.861 12.563 11.593 15.166 13.09 15.166 4.363 7.585 0 7.585 2.997"/>
    <polygon fill="#E73E30" points=".004 13.088 2.604 11.593 2.606 11.59 2.606 5.861 7.581 2.999 7.581 2.997 7.581 .002 7.581 .001 0 4.363 0 13.09"/>
    <path fill="#E73E30" d="M7.80782354,10.2860589 C8.19591162,10.3021569 8.5625357,10.373651 8.88859913,10.4945438 C8.63071547,11.1501428 8.2460995,11.5967834 7.80782354,11.683902 L7.80782354,10.2860589 Z M7.49217646,10.2860589 L7.49217646,11.683902 C7.05374267,11.5967834 6.66912671,11.1501428 6.41124305,10.4945438 C6.73730648,10.373651 7.10393056,10.3021569 7.49217646,10.2860589 Z M9.16636856,10.6135428 C9.36143845,10.7085525 9.53551781,10.822659 9.68876447,10.9497069 C9.36964527,11.2208477 8.99686608,11.4309109 8.58684052,11.5582745 C8.65486247,11.4872539 8.71972794,11.4077108 8.78206824,11.3221704 C8.78790771,11.3141214 8.79374718,11.3062303 8.79942883,11.2980234 C8.92458289,11.1223658 9.03758455,10.9198783 9.13527732,10.6932436 C9.14064332,10.6810912 9.14537802,10.6683075 9.1505862,10.6559973 C9.15626785,10.6424245 9.16084473,10.6272734 9.16636856,10.6135428 Z M6.13347362,10.6135428 C6.13915527,10.6272734 6.14373215,10.6424245 6.1494138,10.6559973 C6.15462198,10.6683075 6.15935668,10.6810912 6.16472268,10.6932436 C6.26241545,10.9198783 6.37541711,11.1223658 6.50041335,11.2980234 C6.50625282,11.3062303 6.51209229,11.3141214 6.51793176,11.3221704 C6.58027206,11.4077108 6.64513753,11.4872539 6.71315948,11.5582745 C6.30313392,11.4309109 5.93035473,11.2208477 5.61123553,10.9497069 C5.76432436,10.822659 5.93840373,10.7085525 6.13347362,10.6135428 Z M10.8,8.70103713 C10.7608598,9.49078611 10.4310086,10.2028859 9.91666166,10.7356982 C9.72995641,10.5758229 9.51578987,10.434413 9.2752668,10.3192019 C9.27952803,10.3062603 9.28394709,10.2933188 9.28820833,10.2802194 C9.36396363,10.0403277 9.42472569,9.7830753 9.46781151,9.51130317 C9.47317751,9.47689764 9.47743875,9.44217646 9.48233128,9.40729746 C9.49685104,9.30408087 9.50868781,9.19897039 9.5179994,9.09196603 C9.52147152,9.0521945 9.52525928,9.01273861 9.52794228,8.97233579 C9.53393958,8.88348114 9.53520216,8.79194348 9.53804299,8.70103713 L10.8,8.70103713 Z M5.76195701,8.70103713 C5.76464001,8.79194348 5.76606042,8.88348114 5.77205772,8.97233579 C5.77474072,9.01273861 5.77852848,9.0521945 5.7820006,9.09196603 C5.79131219,9.19897039 5.80314896,9.30408087 5.81766872,9.40729746 C5.82256125,9.44217646 5.82666466,9.47689764 5.83218849,9.51130317 C5.87527431,9.7830753 5.93587855,10.0403277 6.01179167,10.2802194 C6.01605291,10.2933188 6.02047197,10.3062603 6.0247332,10.3192019 C5.78405231,10.434413 5.56988577,10.5758229 5.38318052,10.7356982 C4.86899143,10.2028859 4.53898241,9.49078611 4.5,8.70103713 L5.76195701,8.70103713 Z M9.22444762,8.70103713 C9.21087479,9.24900045 9.1264392,9.75877048 8.99086878,10.198309 C8.6322937,10.065106 8.23142191,9.98714114 7.80782354,9.97072749 L7.80782354,8.70103713 L9.22444762,8.70103713 Z M7.49217646,8.70103713 L7.49217646,9.97072749 C7.06857809,9.98714114 6.6677063,10.065106 6.30913122,10.198309 C6.17340298,9.75877048 6.08912521,9.24900045 6.07555238,8.70103713 L7.49217646,8.70103713 Z M8.99086878,6.88827597 C9.1264392,7.32781452 9.21087479,7.83758455 9.22444762,8.38539005 L7.80782354,8.38539005 L7.80782354,7.11585751 C8.23142191,7.09944386 8.6322937,7.02147903 8.99086878,6.88827597 Z M9.91666166,6.35104464 C10.4310086,6.88369908 10.7608598,7.59564106 10.8,8.38539005 L9.53804299,8.38539005 C9.53520216,8.29464152 9.53393958,8.20326169 9.52794228,8.11424921 C9.52525928,8.07384639 9.52147152,8.0343905 9.5179994,7.99461897 C9.50868781,7.88761461 9.49685104,7.78266196 9.48233128,7.67928754 C9.47743875,7.64456636 9.47317751,7.60952954 9.46781151,7.57543965 C9.42472569,7.30350969 9.36396363,7.04625733 9.28820833,6.80636555 C9.28394709,6.7932662 9.27952803,6.78032467 9.2752668,6.76738314 C9.51578987,6.65217195 9.72995641,6.51060424 9.91666166,6.35104464 Z M6.30913122,6.88827597 C6.6677063,7.02147903 7.06857809,7.09944386 7.49217646,7.11585751 L7.49217646,8.38539005 L6.07555238,8.38539005 C6.08912521,7.83758455 6.17340298,7.32781452 6.30913122,6.88827597 Z M5.38318052,6.35104464 C5.56988577,6.51060424 5.78405231,6.65217195 6.0247332,6.76738314 C6.02047197,6.78032467 6.01605291,6.7932662 6.01179167,6.80636555 C5.93603637,7.04625733 5.87527431,7.30350969 5.83218849,7.57543965 C5.82666466,7.60952954 5.82256125,7.64456636 5.81766872,7.67928754 C5.80314896,7.78266196 5.79131219,7.88761461 5.7820006,7.99461897 C5.77852848,8.0343905 5.77474072,8.07384639 5.77205772,8.11424921 C5.76606042,8.20326169 5.76464001,8.29464152 5.76195701,8.38539005 L4.5,8.38539005 C4.53898241,7.59564106 4.86899143,6.88369908 5.38318052,6.35104464 Z M7.80782354,5.402683 C8.2460995,5.48980159 8.63071547,5.93644221 8.88859913,6.59204118 C8.5625357,6.71293401 8.19591162,6.78442808 7.80782354,6.80036825 L7.80782354,5.402683 Z M7.49217646,5.402683 L7.49217646,6.80036825 C7.10393056,6.78442808 6.73730648,6.71293401 6.41124305,6.59204118 C6.66912671,5.93644221 7.05374267,5.48980159 7.49217646,5.402683 Z M8.58684052,5.52831054 C8.99686608,5.65567413 9.36964527,5.86557944 9.68876447,6.13672028 C9.53551781,6.26408387 9.36143845,6.37803247 9.16636856,6.47304224 L9.1505862,6.43074553 L9.1505862,6.43074553 C9.14537802,6.41827747 9.14064332,6.40549376 9.13527732,6.39318353 C9.03758455,6.16670675 8.92458289,5.96421915 8.79942883,5.78840373 C8.79374718,5.78035473 8.78790771,5.77246355 8.78206824,5.76441455 C8.71972794,5.67887419 8.65486247,5.59948895 8.58684052,5.52831054 Z M6.71315948,5.52831054 C6.64513753,5.59948895 6.58027206,5.67887419 6.51793176,5.76441455 C6.51209229,5.77246355 6.50625282,5.78035473 6.50041335,5.78840373 C6.37541711,5.96421915 6.26241545,6.16670675 6.16472268,6.39318353 C6.15935668,6.40549376 6.15462198,6.41827747 6.1494138,6.43074553 L6.13347362,6.47304224 L6.13347362,6.47304224 C5.93840373,6.37803247 5.76432436,6.26408387 5.61123553,6.13672028 C5.93035473,5.86557944 6.30313392,5.65567413 6.71315948,5.52831054 Z"/>
  </g>

</symbol>
<symbol id="map_pin_green" viewBox="0 0 10 12">
  <path fill="#77DC01" fill-rule="evenodd" d="M1.46446609,1.46446609 C3.41708755,-0.488155365 6.58291245,-0.488155365 8.53553391,1.46446609 C10.4881554,3.41708755 10.4881554,6.58291245 8.53553391,8.53553391 L8.53553391,8.53553391 L5.2833511,11.7877167 C5.12583152,11.9452363 4.87313939,11.9442072 4.7166489,11.7877167 L4.7166489,11.7877167 L1.46446609,8.53553391 C-0.488155365,6.58291245 -0.488155365,3.41708755 1.46446609,1.46446609 Z M5,2.6 C3.6745166,2.6 2.6,3.6745166 2.6,5 C2.6,6.3254834 3.6745166,7.4 5,7.4 C6.3254834,7.4 7.4,6.3254834 7.4,5 C7.4,3.6745166 6.3254834,2.6 5,2.6 Z"/>

</symbol>
<symbol id="map_pin_red" viewBox="0 0 10 12">
  <path fill="#F20" fill-rule="evenodd" d="M95.4644661,328.464466 C97.4170876,326.511845 100.582912,326.511845 102.535534,328.464466 C104.488155,330.417088 104.488155,333.582912 102.535534,335.535534 L102.535534,335.535534 L99.2833511,338.787717 C99.1258315,338.945236 98.8731394,338.944207 98.7166489,338.787717 L98.7166489,338.787717 L95.4644661,335.535534 C93.5118446,333.582912 93.5118446,330.417088 95.4644661,328.464466 Z M99,329.6 C97.6745166,329.6 96.6,330.674517 96.6,332 C96.6,333.325483 97.6745166,334.4 99,334.4 C100.325483,334.4 101.4,333.325483 101.4,332 C101.4,330.674517 100.325483,329.6 99,329.6 Z" transform="translate(-94 -327)"/>

</symbol>
<symbol id="map_pin_yellow" viewBox="0 0 10 12">
  <path fill="#FFE224" fill-rule="evenodd" d="M1.46446609,1.46446609 C3.41708755,-0.488155365 6.58291245,-0.488155365 8.53553391,1.46446609 C10.4881554,3.41708755 10.4881554,6.58291245 8.53553391,8.53553391 L8.53553391,8.53553391 L5.2833511,11.7877167 C5.12583152,11.9452363 4.87313939,11.9442072 4.7166489,11.7877167 L4.7166489,11.7877167 L1.46446609,8.53553391 C-0.488155365,6.58291245 -0.488155365,3.41708755 1.46446609,1.46446609 Z M5,2.6 C3.6745166,2.6 2.6,3.6745166 2.6,5 C2.6,6.3254834 3.6745166,7.4 5,7.4 C6.3254834,7.4 7.4,6.3254834 7.4,5 C7.4,3.6745166 6.3254834,2.6 5,2.6 Z"/>

</symbol>
<symbol id="op-unit" viewBox="0 0 13 18">
  <g fill="none" fill-rule="evenodd">
    <polygon fill="#ECC236" points="1.735 5.242 6.278 7.307 10.822 5.242 6.278 3.176"/>
    <polygon fill="#DC8A2E" points="1.735 5.242 1.735 11.024 6.278 13.502 6.278 7.307"/>
    <polygon fill="#CF4C37" points="10.822 5.242 10.822 11.024 6.278 13.502 6.278 7.307"/>
    <polygon fill="#CF4C37" points="3.52 13.76 6.278 15.246 6.278 17.919 .455 14.949"/>
    <polygon fill="#82263E" points="9.343 13.76 12.101 15.246 12.101 17.919 6.278 14.651" transform="matrix(-1 0 0 1 18.38 0)"/>
    <polygon fill="#CF4C37" points="4.347 0 6.353 .908 6.353 2.541 2.118 .726" transform="matrix(1 0 0 -1 0 2.541)"/>
    <polygon fill="#82263E" points="8.582 0 10.588 .908 10.588 2.541 6.353 .545" transform="rotate(180 8.47 1.27)"/>
  </g>

</symbol>
<symbol id="plant" viewBox="0 0 16 18">
  <g fill="none" fill-rule="evenodd">
    <polygon fill="#921A3D" points="7.585 14.457 7.584 14.456 7.584 14.457 4.124 12.465 2.606 11.593 2.606 11.59 2.604 11.593 .004 13.088 .004 13.091 7.585 17.453 15.167 13.091 12.563 11.593"/>
    <polygon fill="#F08521" points="12.563 5.861 12.563 11.593 15.166 13.09 15.166 4.363 7.585 0 7.585 2.997"/>
    <polygon fill="#E73E30" points=".004 13.088 2.604 11.593 2.606 11.59 2.606 5.861 7.581 2.999 7.581 2.997 7.581 .002 7.581 .001 0 4.363 0 13.09"/>
    <polygon fill="#F9C125" points="7.584 8.726 10.833 6.856 7.584 4.988 4.336 6.856"/>
    <polygon fill="#E73E30" points="7.585 8.726 7.585 12.465 10.833 10.597 10.833 6.856"/>
    <polygon fill="#F08521" points="4.336 6.856 4.336 10.597 5.326 11.167 7.584 12.466 7.584 12.465 7.584 8.727"/>
  </g>

</symbol>
<symbol id="sensor" viewBox="0 0 16 17">
  <g fill="none" fill-rule="evenodd">
    <path fill="#E63F30" d="M10.693,8.27 C10.693,9.79982876 9.45282876,11.04 7.923,11.04 C6.39317124,11.04 5.153,9.79982876 5.153,8.27 C5.153,6.74017127 6.39317127,5.50000006 7.923,5.50000006 C9.45282873,5.50000006 10.693,6.74017127 10.693,8.27"/>
    <path fill="#EBC032" d="M9.47,8.27 C9.47,9.12410837 8.77760837,9.8165 7.9235,9.8165 C7.06939163,9.8165 6.377,9.12410837 6.377,8.27 C6.377,7.41589163 7.06939163,6.7235 7.9235,6.7235 C8.77760837,6.7235 9.47,7.41589163 9.47,8.27"/>
    <polygon fill="#921A3D" points="4.353 12.23 2.751 11.306 2.751 11.303 2.749 11.306 .004 12.889 .004 12.892 6.306 16.53 6.306 13.357"/>
    <polygon fill="#E73E30" points="0 3.649 0 12.891 .004 12.888 2.749 11.305 2.751 11.302 2.751 5.235 6.306 3.184 6.306 .008"/>
    <path fill="#921A3D" fill-rule="nonzero" d="M4.359,4.3 L2.757,5.224 L2.757,5.227 L2.755,5.224 L0.01,3.641 L0.01,3.638 L6.312,0 L6.312,3.173 L4.359,4.3 Z M11.623,12.23 L13.225,11.306 L13.225,11.303 L13.227,11.306 L15.972,12.889 L15.972,12.892 L9.67,16.53 L9.67,13.357 L11.623,12.23 Z"/>
    <polygon fill="#E73E30" points="15.976 3.649 15.976 12.891 15.973 12.888 13.228 11.305 13.226 11.302 13.226 5.235 9.67 3.184 9.67 .008"/>
    <polygon fill="#921A3D" points="11.617 4.3 13.22 5.224 13.22 5.227 13.222 5.224 15.967 3.641 15.967 3.638 9.665 0 9.665 3.173"/>
  </g>

</symbol>
<symbol id="status_d" viewBox="0 0 12 12">
  <circle cx="114" cy="210" r="6" fill="#8C92A5" fill-rule="evenodd" transform="translate(-108 -204)"/>

</symbol>
<symbol id="status_error" viewBox="0 0 12 12">
  <circle cx="96" cy="210" r="6" fill="#F20" fill-rule="evenodd" transform="translate(-90 -204)"/>

</symbol>
<symbol id="status_ok" viewBox="0 0 12 12">
  <circle cx="78" cy="210" r="6" fill="#63D45C" fill-rule="evenodd" transform="translate(-72 -204)"/>

</symbol>
<symbol id="sub-component" viewBox="0 0 18 11">
  <g fill="none" fill-rule="evenodd">
    <polygon fill="#F08521" points="0 5.084 2.936 10.17 5.872 5.084"/>
    <polygon fill="#E73E30" points="2.936 10.17 8.807 10.17 5.872 5.085"/>
    <polygon fill="#921A3D" points="8.807 0 5.872 5.084 11.744 5.084"/>
    <polygon fill="#BD1E51" points="5.872 5.084 8.807 10.17 11.744 5.084"/>
    <polygon fill="#E73E30" points="8.807 0 11.744 5.084 14.679 0"/>
    <polygon fill="#F08521" points="14.679 0 11.744 5.084 17.615 5.084"/>
  </g>

</symbol>
<symbol id="sub-equipment" viewBox="0 0 17 18">
  <g fill="none" fill-rule="evenodd">
    <polygon fill="#921A3D" points="10.902 0 10.902 3.147 13.626 4.721 16.369 3.137"/>
    <polygon fill="#E73E30" points="5.45 0 0 3.136 2.734 4.715 5.45 3.147"/>
    <polygon fill="#E73E30" points="2.725 14.16 8.185 17.313 8.185 14.155 8.175 14.16 5.45 12.587"/>
    <polygon fill="#921A3D" points="10.9 12.587 8.185 14.155 8.185 17.313 13.626 14.16 10.902 12.587"/>
    <polygon fill="#F08521" points="8.184 13.329 10.492 11.996 10.492 9.322 8.184 7.989"/>
    <polygon fill="#F9C125" points="6.218 9.115 5.859 9.322 5.859 11.996 8.176 13.333 8.176 7.985"/>
    <polygon fill="#F9C125" points="8.176 5.311 5.859 3.973 3.552 5.307 8.176 7.977"/>
    <polygon fill="#F08521" points="3.543 7.985 5.86 9.322 8.176 7.985 3.543 5.311"/>
    <polygon fill="#F9C125" points="8.184 7.98 8.183 7.981 8.175 7.985 8.184 7.989 10.492 9.322 10.5 9.318 12.808 7.985 12.808 5.311"/>
    <polygon fill="#F08521" points="8.184 7.98 12.808 5.311 10.492 3.973 8.184 5.306"/>
  </g>

</symbol>
<symbol id="sub-op-uni" viewBox="0 0 13 14">
  <g fill="none" fill-rule="evenodd">
    <polygon fill="#ECC236" points=".687 5.331 5.309 7.432 9.93 5.331 5.309 3.231"/>
    <polygon fill="#DC8A2E" points=".687 5.331 .687 11.213 5.309 13.733 5.309 7.432"/>
    <polygon fill="#CF4C37" points="9.93 5.331 9.93 11.213 5.309 13.733 5.309 7.432"/>
    <circle cx="11.308" cy="1.615" r="1.615" fill="#82263E"/>
    <circle cx="9.154" cy="1.615" r="1.615" fill="#CF4C37"/>
  </g>

</symbol>
<symbol id="sub-plant" viewBox="0 0 16 18">
  <g fill="none" fill-rule="evenodd">
    <polygon fill="#921A3D" points="7.585 14.457 7.584 14.456 7.584 14.457 4.124 12.465 2.606 11.593 2.606 11.59 2.604 11.593 .004 13.088 .004 13.091 7.585 17.453 15.167 13.091 12.563 11.593"/>
    <polygon fill="#F08521" points="12.563 5.861 12.563 11.593 15.166 13.09 15.166 4.363 7.585 0 7.585 2.997"/>
    <polygon fill="#E73E30" points=".004 13.088 2.604 11.593 2.606 11.59 2.606 5.861 7.581 2.999 7.581 2.997 7.581 .002 7.581 .001 0 4.363 0 13.09"/>
    <path fill="#F08521" d="M7.60654008,12 L5.79462105,10.9578371 L5,10.500228 L5,7.49916384 L7.60654008,6 L10.212,7.499 L10.2134614,7.49885978 L10.2134614,10.5006841 L7.60692137,11.9996959 L7.60654008,12 Z"/>
  </g>

</symbol>
<symbol id="validate_o" viewBox="0 0 18 18">
  <path fill="#59E800" fill-rule="evenodd" d="M355.907195,168.875727 L350.537879,174.245507 C350.414122,174.368801 350.247258,174.437864 350.072977,174.437864 C349.898697,174.437864 349.731833,174.368801 349.608539,174.245507 L346.632332,171.269764 C346.376011,171.012978 346.376011,170.596745 346.632332,170.340423 C346.888654,170.084102 347.304887,170.084102 347.561673,170.340423 L350.072977,172.852191 L354.977854,167.946851 C355.23464,167.690065 355.650873,167.690529 355.907195,167.946851 C356.163517,168.203172 356.163517,168.619406 355.907195,168.875727 M351,162 C346.037647,162 342,166.037184 342,171 C342,175.962816 346.037647,180 351,180 C355.962816,180 360.000464,175.962816 360.000464,171 C360.000464,166.037184 355.962816,162 351,162" transform="translate(-342 -162)"/>

</symbol>
<symbol id="wizard_active" viewBox="0 0 18 18">
  <path fill="#1825AA" fill-rule="evenodd" d="M152.928857,177.428571 C149.345143,177.428571 146.429143,174.513429 146.429143,170.928857 C146.429143,167.345143 149.345143,164.43 152.928857,164.43 C156.512571,164.43 159.428571,167.345143 159.428571,170.928857 C159.428571,174.513429 156.512571,177.428571 152.928857,177.428571 M152.928857,162 C157.852286,162 161.857714,166.005429 161.857714,170.928857 C161.857714,175.853143 157.852286,179.858571 152.928857,179.858571 C148.005429,179.858571 144,175.853143 144,170.928857 C144,166.005429 148.005429,162 152.928857,162 Z M152.928857,165.857143 C150.132,165.857143 147.857143,168.132857 147.857143,170.928857 C147.857143,173.725714 150.132,176.001429 152.928857,176.001429 C155.725714,176.001429 158.000571,173.725714 158.000571,170.928857 C158.000571,168.132857 155.725714,165.857143 152.928857,165.857143 Z" transform="translate(-144 -162)"/>

</symbol>
<symbol id="wizard_inactive" viewBox="0 0 18 18">
  <path fill="#8C92A5" fill-rule="evenodd" d="M72,170.999568 C72,175.962851 76.037149,180 80.999568,180 C85.961987,180 89.9991361,175.962851 89.9991361,170.999568 C89.9991361,166.037149 85.961987,162 80.999568,162 C76.037149,162 72,166.037149 72,170.999568 Z" transform="translate(-72 -162)"/>
</symbol>

<symbol id="wizard_visited" viewBox="0 0 18 18">
  <path fill="#9682E7" fill-rule="evenodd" d="M108,170.999568 C108,175.962851 112.037149,180 116.999568,180 C121.961987,180 125.999136,175.962851 125.999136,170.999568 C125.999136,166.037149 121.961987,162 116.999568,162 C112.037149,162 108,166.037149 108,170.999568 Z" transform="translate(-108 -162)"/>
</symbol>

<symbol id="info" viewBox="0 0 15 15">
  <path fill-rule="evenodd" clip-rule="evenodd" d="M0 7.5C0 11.6422 3.35785 15 7.5 15C11.6422 15 15 11.6422 15 7.5C15 3.35793 11.6422 0 7.5 0C3.35784 0 0 3.35793 0 7.5Z" fill="#0068B3"/>
  <path fill-rule="evenodd" clip-rule="evenodd" d="M7.50226 4.7C7.03282 4.7 6.65226 4.31944 6.65226 3.85C6.65226 3.38056 7.03282 3 7.50226 3C7.97171 3 8.35226 3.38056 8.35226 3.85C8.35226 4.31944 7.97171 4.7 7.50226 4.7ZM7.50226 5.26669C7.97171 5.26669 8.35226 5.64725 8.35226 6.11669V10.0834C8.35226 10.5528 7.97171 10.9334 7.50226 10.9334C7.03282 10.9334 6.65226 10.5528 6.65226 10.0834L6.65226 6.11669C6.65226 5.64725 7.03282 5.26669 7.50226 5.26669Z" fill="white"/>
</symbol>

</svg>